<svg xmlns="http://www.w3.org/2000/svg" width="81.093" height="74" viewBox="0 0 81.093 74">
  <defs>
    <style>
      .cls-1 {
        fill: #fff;
        fill-rule: evenodd;
      }
    </style>
  </defs>
  <path id="Логотип" class="cls-1" d="M315.841,66.434L280.49,30.913a1.466,1.466,0,0,0-2.082,0L243.056,66.434a1.487,1.487,0,0,0,0,2.094l6.755,6.786a3.548,3.548,0,0,0,2.513,1.047h0.67a0.649,0.649,0,0,0,.474-1.087l-5.655-6.158a1.471,1.471,0,0,1,.093-2.081l30.6-27.814a1.615,1.615,0,0,1,2.178,0l30.307,27.8a1.476,1.476,0,0,1,.089,2.085l-5.654,6.158a0.649,0.649,0,0,0,.475,1.087h0.67a3.55,3.55,0,0,0,2.513-1.047l6.754-6.786a1.485,1.485,0,0,0,0-2.094M291.186,92.095a2.746,2.746,0,0,0-2.015.887l-8.725,9.5a1.35,1.35,0,0,1-2,0l-8.723-9.5a2.749,2.749,0,0,0-2.017-.887,0.519,0.519,0,0,0-.353.854l11.05,11.1a1.468,1.468,0,0,0,2.082,0l11.05-11.1a0.5,0.5,0,0,0-.354-0.854m-27.642-21.3a16.047,16.047,0,0,0,.689,4.663,1.3,1.3,0,0,0,1.252.907,0.746,0.746,0,0,0,.7-0.931,13.6,13.6,0,1,1,26.522,0,0.745,0.745,0,0,0,.7.931,1.3,1.3,0,0,0,1.252-.907,15.918,15.918,0,1,0-31.119-4.663m4.766,7.5h-5.2v1.229h0.865q0.753,0,.753.5a1.728,1.728,0,0,1-.216.721l-2.188,3.962L259.7,80.46a1.8,1.8,0,0,0-.081-0.172,0.59,0.59,0,0,1-.064-0.258,0.4,0.4,0,0,1,.211-0.412,1.586,1.586,0,0,1,.617-0.092h0.43V78.3h-6.64v1.229h0.254a2.083,2.083,0,0,1,1.137.287,2.883,2.883,0,0,1,.869,1.01l3.95,5.981a2.892,2.892,0,0,1,.156.325,1.091,1.091,0,0,1,.094.432,0.809,0.809,0,0,1-.147.361,0.971,0.971,0,0,1-.282.326l-0.075.035a0.558,0.558,0,0,1-.288-0.136c-0.124-.09-0.219-0.166-0.286-0.225a2,2,0,0,0-1.292-.647,1.039,1.039,0,0,0-.463.106,1.389,1.389,0,0,0-.609.574,1.59,1.59,0,0,0-.255.834,0.573,0.573,0,0,0,.038.154,0.53,0.53,0,0,1,.037.167,1.334,1.334,0,0,0,.274.591,1.923,1.923,0,0,0,.69.553,2.373,2.373,0,0,0,1.077.228h0.11a2.433,2.433,0,0,0,1.412-.638,5.794,5.794,0,0,0,1.315-1.6l4.341-7.639a2.043,2.043,0,0,1,.814-0.763,2.828,2.828,0,0,1,1.266-.319V78.3ZM253.542,89a2.326,2.326,0,0,1-1.582-1.188l-1.218-2.02a4.268,4.268,0,0,0-.727-0.889,6.006,6.006,0,0,0-1.186-.9,4.014,4.014,0,0,0-1.389-.517,1.761,1.761,0,0,0,.577-0.412,8.7,8.7,0,0,0,.63-0.741l0.762-.989a9.906,9.906,0,0,1,.759-0.887,0.634,0.634,0,0,1,.431-0.1,0.816,0.816,0,0,1,.608.216,1.528,1.528,0,0,0,1.043.541,1.124,1.124,0,0,0,.462-0.145,1.188,1.188,0,0,0,.54-0.53,1.585,1.585,0,0,0,.18-0.735V79.486a1.306,1.306,0,0,0-.576-0.9,2.012,2.012,0,0,0-1.255-.4h-0.07a2.7,2.7,0,0,0-1.381.432,4.165,4.165,0,0,0-.989.83c-0.1.131-.324,0.456-0.667,0.979s-0.642.959-.9,1.309a7.105,7.105,0,0,1-.834.961,1.7,1.7,0,0,1-.865.5h-1.113V81.326a4.8,4.8,0,0,1,.095-1.132,0.757,0.757,0,0,1,.424-0.515,2.672,2.672,0,0,1,1.059-.154V78.3h-6.42v1.229a2.518,2.518,0,0,1,1.044.164,0.836,0.836,0,0,1,.457.535,3.985,3.985,0,0,1,.114,1.1v6.017a3.952,3.952,0,0,1-.109,1.067,0.832,0.832,0,0,1-.456.532,2.561,2.561,0,0,1-1.05.165v1.228h6.42V89.108a2.728,2.728,0,0,1-1.059-.151,0.74,0.74,0,0,1-.424-0.507,4.627,4.627,0,0,1-.095-1.107V84.387h0.683a1.712,1.712,0,0,1,1.3.467,6.325,6.325,0,0,1,.856,1.406q0.141,0.309.413,1.081a11.6,11.6,0,0,0,.548,1.331,4.706,4.706,0,0,0,.725,1.053,2.3,2.3,0,0,0,.8.543,3.965,3.965,0,0,0,1.246.358h0.394a4.779,4.779,0,0,0,1.513-.254,3.336,3.336,0,0,0,1.251-.723l-0.291-.937a1.353,1.353,0,0,1-.677.29m47.672-9.478h0.036a2.351,2.351,0,0,1,.969.3,0.908,0.908,0,0,1,.605.813V80.75l-5.271,5.371V81.327a4.3,4.3,0,0,1,.114-1.165,0.742,0.742,0,0,1,.463-0.5,3.463,3.463,0,0,1,1.144-.134V78.3H292.6v1.229a3.468,3.468,0,0,1,1.147.134,0.745,0.745,0,0,1,.465.5,4.291,4.291,0,0,1,.115,1.165v6.017a5.886,5.886,0,0,1-.057.951,0.945,0.945,0,0,1-.23.5,0.913,0.913,0,0,1-.508.247,5.156,5.156,0,0,1-.932.066v1.228h6.675V89.108a0.643,0.643,0,0,0-.131.02,0.582,0.582,0,0,1-.119.02,1.545,1.545,0,0,1-1-.321,0.928,0.928,0,0,1-.4-0.726,1.325,1.325,0,0,1,.02-0.138,0.862,0.862,0,0,0,.019-0.15l5.274-5.225v4.756a6,6,0,0,1-.057.951,0.944,0.944,0,0,1-.228.5,0.907,0.907,0,0,1-.5.247,5.118,5.118,0,0,1-.932.066v1.228h6.67V89.108a3.764,3.764,0,0,1-1.145-.125,0.722,0.722,0,0,1-.463-0.483,4.245,4.245,0,0,1-.113-1.156V81.327a4.35,4.35,0,0,1,.113-1.165,0.748,0.748,0,0,1,.464-0.5,3.467,3.467,0,0,1,1.144-.134V78.3h-6.67v1.229ZM320.361,79.6a3.284,3.284,0,0,0-1.7-1.029,9.453,9.453,0,0,0-2.379-.27h-6.669V79.52a3.561,3.561,0,0,1,1.144.133,0.746,0.746,0,0,1,.463.5,4.31,4.31,0,0,1,.114,1.166v6.02a5.978,5.978,0,0,1-.057.95,0.944,0.944,0,0,1-.228.5,0.927,0.927,0,0,1-.5.247,5.105,5.105,0,0,1-.931.066v1.228h6.669V89.108a3.768,3.768,0,0,1-1.145-.125,0.719,0.719,0,0,1-.461-0.483,4.16,4.16,0,0,1-.114-1.156V85h2.01a7.3,7.3,0,0,0,2.179-.312,3.441,3.441,0,0,0,1.636-1.047,2.828,2.828,0,0,0,.634-1.923,3.133,3.133,0,0,0-.66-2.124m-3.238,3.737a2,2,0,0,1-1.519.588h-1.042V79.629h1.471a1.371,1.371,0,0,1,1.25.632,2.79,2.79,0,0,1,.4,1.529,2.136,2.136,0,0,1-.561,1.542M284.84,88.986a4.512,4.512,0,0,1-1.222.115V90.33h7.321V89.1a4.988,4.988,0,0,1-1.222-.1,0.69,0.69,0,0,1-.486-0.457,4.013,4.013,0,0,1-.124-1.2l-1.2-13.247a4.287,4.287,0,0,1,.113-1.166,0.747,0.747,0,0,1,.464-0.5,3.47,3.47,0,0,1,1.143-.134V71.059H284l-4.7,13.285L274.66,71.059h-5.633v1.227a3.463,3.463,0,0,1,1.142.134,0.747,0.747,0,0,1,.464.5,4.279,4.279,0,0,1,.114,1.166l-1.2,13.247a4.047,4.047,0,0,1-.124,1.2,0.692,0.692,0,0,1-.485.457,5,5,0,0,1-1.223.1V90.33h7.321V89.1a4.512,4.512,0,0,1-1.222-.115,0.709,0.709,0,0,1-.483-0.465,3.737,3.737,0,0,1-.159-1.185l1.2-10.068,4.971,13.523,4.94-13.523,1.2,10.068a3.774,3.774,0,0,1-.158,1.185,0.714,0.714,0,0,1-.484.465" transform="translate(-239.938 -30.5)"/>
</svg>
