<?xml version="1.0" encoding="UTF-8" standalone="no"?>
<!-- Created with Inkscape (http://www.inkscape.org/) -->

<svg
   xmlns:svg="http://www.w3.org/2000/svg"
   xmlns="http://www.w3.org/2000/svg"
   xmlns:xlink="http://www.w3.org/1999/xlink"
   version="1.1"
   width="256"
   height="256"
   id="svg2">
  <defs
     id="defs4">
    <clipPath
       id="clipPath112">
      <path
         d="m 0,841.89 595.28,0 L 595.28,0 0,0 0,841.89 z"
         id="path114" />
    </clipPath>
    <clipPath
       id="clipPath90">
      <path
         d="m 454.803,641.623 -10.917,-30.674 c -0.038,-0.11 -0.142,-0.184 -0.259,-0.184 l 0,0 -0.001,0 c -0.117,10e-4 -0.22,0.075 -0.26,0.186 l 0,0 -10.75,30.672 -12.674,0 0,-2.298 c 1.134,-0.015 1.949,-0.123 2.487,-0.33 l 0,0 c 0.625,-0.239 1.044,-0.69 1.249,-1.342 l 0,0 c 0.188,-0.605 0.28,-1.519 0.279,-2.818 l 0,0 -2.801,-30.749 c 0,-1.375 -0.098,-2.319 -0.302,-2.883 l 0,0 c -0.217,-0.629 -0.659,-1.045 -1.316,-1.236 l 0,0 c -0.553,-0.159 -1.423,-0.242 -2.654,-0.252 l 0,0 0,-2.304 16.536,0 0,2.304 c -1.238,0.012 -2.11,0.103 -2.658,0.276 l 0,0 c -0.647,0.202 -1.086,0.623 -1.305,1.25 l 0,0 c -0.144,0.417 -0.387,1.34 -0.386,2.878 l 0,0 2.799,23.388 c 0.015,0.127 0.115,0.227 0.242,0.242 l 0,0 c 0.01,10e-4 0.021,0.002 0.031,0.002 l 0,0 c 0.114,0 0.22,-0.071 0.259,-0.181 l 0,0 11.344,-30.711 11.273,30.711 c 0.041,0.109 0.144,0.181 0.26,0.181 l 0,0 c 0.01,0 0.021,-10e-4 0.032,-0.002 l 0,0 c 0.127,-0.015 0.226,-0.115 0.242,-0.242 l 0,0 2.801,-23.421 c 0,-1.509 -0.241,-2.431 -0.387,-2.847 l 0,0 c -0.225,-0.628 -0.664,-1.047 -1.304,-1.247 l 0,0 c -0.549,-0.174 -1.421,-0.265 -2.659,-0.277 l 0,0 0,-2.304 16.533,0 0,2.304 c -1.228,0.01 -2.098,0.093 -2.651,0.253 l 0,0 c -0.656,0.189 -1.1,0.605 -1.317,1.231 l 0,0 c -0.205,0.568 -0.305,1.512 -0.304,2.862 l 0,0 -2.799,30.799 c 0,1.274 0.091,2.188 0.277,2.793 l 0,0 c 0.205,0.652 0.625,1.104 1.248,1.342 l 0,0 c 0.541,0.207 1.358,0.315 2.492,0.33 l 0,0 0,2.298 -12.68,0 z M 375.747,624.11 c -0.971,-0.613 -1.724,-1.243 -2.237,-1.867 l 0,0 c -0.237,-0.299 -0.756,-1.058 -1.546,-2.255 l 0,0 c -0.825,-1.246 -1.51,-2.244 -2.098,-3.05 l 0,0 c -0.605,-0.83 -1.271,-1.594 -1.979,-2.271 l 0,0 c -0.746,-0.711 -1.474,-1.128 -2.211,-1.242 l 0,0 -2.598,0 c -0.152,0 -0.276,0.123 -0.276,0.276 l 0,0 0,4.35 c 0,1.234 0.075,2.116 0.228,2.698 l 0,0 c 0.168,0.634 0.551,1.097 1.141,1.376 l 0,0 c 0.508,0.239 1.266,0.366 2.313,0.385 l 0,0 0,2.303 -14.436,0 0,-2.304 c 1.004,-0.019 1.752,-0.153 2.282,-0.406 l 0,0 c 0.604,-0.288 1.012,-0.762 1.212,-1.409 l 0,0 c 0.186,-0.605 0.279,-1.495 0.279,-2.648 l 0,0 0,-13.979 c 0,-1.098 -0.09,-1.958 -0.268,-2.557 l 0,0 c -0.197,-0.643 -0.605,-1.116 -1.211,-1.404 l 0,0 c -0.53,-0.254 -1.283,-0.388 -2.294,-0.409 l 0,0 0,-2.301 14.436,0 0,2.301 c -1.039,0.018 -1.796,0.141 -2.309,0.374 l 0,0 c -0.592,0.269 -0.976,0.727 -1.144,1.359 l 0,0 c -0.154,0.575 -0.229,1.44 -0.229,2.641 l 0,0 0,6.869 c 0,0.152 0.124,0.276 0.276,0.276 l 0,0 1.599,0 c 1.471,-0.035 2.555,-0.431 3.226,-1.18 l 0,0 c 0.634,-0.715 1.319,-1.837 2.04,-3.335 l 0,0 c 0.229,-0.501 0.556,-1.352 0.973,-2.532 l 0,0 c 0.422,-1.195 0.849,-2.225 1.268,-3.062 l 0,0 c 0.416,-0.831 0.97,-1.633 1.66,-2.396 l 0,0 c 0.302,-0.375 0.898,-0.773 1.77,-1.183 l 0,0 c 0.884,-0.42 1.833,-0.691 2.79,-0.806 l 0,0 0.919,0 c 1.138,0 2.298,0.194 3.445,0.577 l 0,0 c 1.077,0.361 1.981,0.866 2.691,1.501 l 0,0 -0.516,1.661 c -0.572,-0.349 -1.041,-0.519 -1.426,-0.519 l 0,0 c -1.196,0 -2.476,0.938 -3.929,2.892 l 0,0 -2.846,4.697 c -0.336,0.586 -0.891,1.261 -1.65,2.006 l 0,0 c -0.758,0.746 -1.672,1.436 -2.717,2.051 l 0,0 c -1.035,0.604 -2.093,0.996 -3.146,1.167 l 0,0 c -0.123,0.019 -0.216,0.119 -0.23,0.242 l 0,0 c -0.013,0.123 0.057,0.24 0.172,0.286 l 0,0 c 0.403,0.161 0.824,0.463 1.25,0.894 l 0,0 c 0.446,0.457 0.934,1.029 1.45,1.698 l 0,0 c 0.528,0.683 1.123,1.448 1.78,2.294 l 0,0 c 0.659,0.85 1.263,1.553 1.797,2.089 l 0,0 c 0.217,0.217 0.608,0.323 1.196,0.323 l 0,0 c 0.686,0 1.23,-0.197 1.616,-0.582 l 0,0 c 0.785,-0.78 1.539,-1.176 2.241,-1.176 l 0,0 c 0.155,0 0.447,0.053 0.957,0.309 l 0,0 c 0.503,0.252 0.884,0.624 1.135,1.108 l 0,0 c 0.26,0.494 0.39,1.027 0.39,1.582 l 0,0 0.002,0.474 c -0.076,0.715 -0.481,1.339 -1.237,1.906 l 0,0 c -0.761,0.576 -1.691,0.868 -2.761,0.868 l 0,0 -0.154,10e-4 c -1.096,-0.035 -2.134,-0.358 -3.086,-0.961 m 138.937,0.703 0,-2.291 c 1.132,-0.014 1.948,-0.123 2.491,-0.328 l 0,0 c 0.626,-0.239 1.046,-0.693 1.247,-1.346 l 0,0 c 0.188,-0.592 0.279,-1.506 0.279,-2.793 l 0,0 0,-13.984 c 0,-0.998 -0.045,-1.736 -0.136,-2.255 l 0,0 c -0.098,-0.551 -0.3,-0.99 -0.605,-1.309 l 0,0 c -0.306,-0.32 -0.752,-0.54 -1.326,-0.654 l 0,0 c -0.49,-0.095 -1.145,-0.147 -1.95,-0.157 l 0,0 0,-2.3 15.017,0 0,2.3 c -1.122,0.015 -1.958,0.117 -2.489,0.306 l 0,0 c -0.627,0.224 -1.047,0.662 -1.248,1.3 l 0,0 c -0.188,0.584 -0.279,1.49 -0.279,2.769 l 0,0 0,5.439 c 0,0.152 0.124,0.276 0.276,0.276 l 0,0 4.693,0 c 1.79,0 3.473,0.239 5.003,0.713 l 0,0 c 1.503,0.463 2.745,1.254 3.696,2.351 l 0,0 c 0.935,1.078 1.408,2.52 1.408,4.287 l 0,0 c 0,2.03 -0.494,3.629 -1.469,4.751 l 0,0 c -0.98,1.125 -2.269,1.901 -3.833,2.305 l 0,0 c -1.588,0.411 -3.432,0.62 -5.481,0.62 l 0,0 -15.294,0 z m 11.001,-12.791 0,9.971 c 0,0.153 0.124,0.277 0.276,0.277 l 0,0 3.432,0 c 1.419,0 2.479,-0.538 3.15,-1.598 l 0,0 c 0.651,-1.018 0.981,-2.262 0.981,-3.699 l 0,0 c 0,-1.549 -0.467,-2.819 -1.387,-3.775 l 0,0 c -0.924,-0.963 -2.184,-1.452 -3.744,-1.452 l 0,0 -2.432,0 c -0.152,0 -0.276,0.124 -0.276,0.276 m -30.607,12.791 0,-2.308 c 0.585,-0.044 1.306,-0.283 2.191,-0.726 l 0,0 c 1.041,-0.515 1.57,-1.234 1.57,-2.137 l 0,0 0,-0.255 c 0,-0.073 -0.028,-0.142 -0.081,-0.193 l 0,0 -12.307,-12.478 c -0.052,-0.054 -0.124,-0.083 -0.196,-0.083 l 0,0 c -0.035,0 -0.071,0.008 -0.105,0.021 l 0,0 c -0.103,0.043 -0.172,0.144 -0.172,0.256 l 0,0 0,11.136 c 0,1.271 0.091,2.184 0.278,2.793 l 0,0 c 0.206,0.652 0.626,1.104 1.248,1.342 l 0,0 c 0.538,0.206 1.354,0.315 2.492,0.329 l 0,0 0,2.303 -15.028,0 0,-2.303 c 1.146,-0.014 1.965,-0.123 2.499,-0.329 l 0,0 c 0.628,-0.239 1.05,-0.691 1.251,-1.344 l 0,0 c 0.186,-0.602 0.28,-1.541 0.28,-2.791 l 0,0 0,-13.979 c 0,-0.976 -0.046,-1.735 -0.137,-2.258 l 0,0 c -0.104,-0.562 -0.303,-0.988 -0.607,-1.301 l 0,0 c -0.304,-0.321 -0.753,-0.542 -1.337,-0.655 l 0,0 c -0.493,-0.095 -1.148,-0.147 -1.949,-0.157 l 0,0 0,-2.3 15.028,0 0,2.252 c -0.131,-0.03 -0.231,-0.046 -0.306,-0.046 l 0,0 c -1.009,0 -1.857,0.272 -2.516,0.808 l 0,0 c -0.685,0.549 -1.034,1.189 -1.034,1.9 l 0,0 c 0,0.064 0.017,0.188 0.053,0.373 l 0,0 c 0.025,0.131 0.038,0.231 0.038,0.292 l 0,0 c 0,0.074 0.031,0.145 0.082,0.197 l 0,0 12.313,12.139 c 0.052,0.052 0.123,0.08 0.194,0.08 l 0,0 c 0.037,0 0.072,-0.007 0.107,-0.021 l 0,0 c 0.102,-0.044 0.17,-0.143 0.17,-0.255 l 0,0 0,-11.048 c 0,-0.972 -0.047,-1.73 -0.139,-2.255 l 0,0 c -0.097,-0.546 -0.299,-0.986 -0.604,-1.304 l 0,0 c -0.302,-0.32 -0.749,-0.541 -1.325,-0.655 l 0,0 c -0.49,-0.095 -1.145,-0.147 -1.951,-0.157 l 0,0 0,-2.3 15.017,0 0,2.3 c -1.122,0.015 -1.959,0.117 -2.491,0.306 l 0,0 c -0.623,0.224 -1.044,0.662 -1.25,1.301 l 0,0 c -0.186,0.592 -0.277,1.495 -0.277,2.764 l 0,0 0,13.979 c 0,1.271 0.091,2.184 0.277,2.792 l 0,0 c 0.205,0.652 0.624,1.102 1.249,1.343 l 0,0 c 0.538,0.206 1.354,0.315 2.492,0.329 l 0,0 0,2.303 -15.017,0 z m -88.957,0 0,-2.301 1.74,0 c 1.681,0 2.034,-0.788 2.034,-1.448 l 0,0 c 0,-0.487 -0.175,-1.076 -0.539,-1.811 l 0,0 -5.108,-9.202 c -0.047,-0.086 -0.136,-0.14 -0.234,-0.142 l 0,0 c -0.002,-10e-4 -0.005,-10e-4 -0.008,-10e-4 l 0,0 c -0.095,0 -0.184,0.05 -0.234,0.132 l 0,0 -6.141,9.931 c -0.024,0.068 -0.081,0.188 -0.177,0.371 l 0,0 c -0.116,0.236 -0.176,0.479 -0.176,0.722 l 0,0 c 0,0.752 0.355,1.072 0.657,1.209 l 0,0 c 0.368,0.161 0.876,0.239 1.552,0.239 l 0,0 0.726,0 0,2.301 -14.946,0 0,-2.301 0.315,0 c 1.11,0 2.053,-0.24 2.805,-0.715 l 0,0 c 0.741,-0.473 1.452,-1.293 2.107,-2.422 l 0,0 9.233,-13.91 c 0.099,-0.173 0.227,-0.431 0.374,-0.782 l 0,0 c 0.162,-0.369 0.245,-0.743 0.245,-1.115 l 0,0 c 0,-0.24 -0.125,-0.561 -0.382,-0.981 l 0,0 c -0.254,-0.415 -0.499,-0.692 -0.782,-0.864 l 0,0 -0.173,-0.08 c -0.036,-0.016 -0.075,-0.025 -0.116,-0.025 l 0,0 c -0.226,0 -0.5,0.121 -0.836,0.37 l 0,0 c -0.294,0.217 -0.523,0.395 -0.689,0.539 l 0,0 c -1.032,0.949 -1.984,1.431 -2.829,1.431 l 0,0 c -0.344,0 -0.666,-0.073 -0.968,-0.222 l 0,0 c -0.5,-0.22 -0.936,-0.632 -1.3,-1.225 l 0,0 c -0.368,-0.598 -0.554,-1.201 -0.554,-1.793 l 0,0 c 0,-0.007 0.002,-0.07 0.069,-0.261 l 0,0 c 0.069,-0.187 0.105,-0.35 0.102,-0.449 l 0,0 c 0.048,-0.367 0.246,-0.785 0.588,-1.247 l 0,0 c 0.34,-0.459 0.849,-0.864 1.514,-1.203 l 0,0 c 0.657,-0.331 1.462,-0.498 2.39,-0.498 l 0,0 0.249,0 c 0.97,0.037 2.022,0.515 3.127,1.419 l 0,0 c 1.127,0.921 2.141,2.143 3.007,3.632 l 0,0 10.135,17.753 c 0.456,0.77 1.13,1.4 2.006,1.875 l 0,0 c 0.807,0.435 1.752,0.691 2.811,0.759 l 0,0 0,2.315 -11.594,0 z"
         id="path92" />
    </clipPath>
    <linearGradient
       x1="0"
       y1="0"
       x2="1"
       y2="0"
       id="linearGradient98"
       gradientUnits="userSpaceOnUse"
       gradientTransform="matrix(0,44.901367,44.901367,0,446.40527,596.72168)"
       spreadMethod="pad">
      <stop
         id="stop100"
         style="stop-color:#005e98;stop-opacity:1"
         offset="0" />
      <stop
         id="stop102"
         style="stop-color:#4275ab;stop-opacity:1"
         offset="0.61817902" />
      <stop
         id="stop104"
         style="stop-color:#005e98;stop-opacity:1"
         offset="1" />
    </linearGradient>
    <clipPath
       id="clipPath78">
      <path
         d="m 0,841.89 595.28,0 L 595.28,0 0,0 0,841.89 z"
         id="path80" />
    </clipPath>
    <clipPath
       id="clipPath56">
      <path
         d="m 441.758,734.969 -82.525,-82.521 c -1.231,-1.234 -1.231,-3.239 0,-4.472 l 0,0 15.77,-15.765 c 1.491,-1.495 3.558,-2.351 5.671,-2.351 l 0,0 1.562,0 c 0.495,0 0.927,0.281 1.125,0.734 l 0,0 c 0.2,0.454 0.116,0.964 -0.22,1.328 l 0,0 -13.201,14.306 c -0.672,0.728 -1.017,1.673 -0.971,2.663 l 0,0 c 0.044,0.989 0.475,1.898 1.207,2.561 l 0,0 71.437,64.614 c 0.747,0.676 1.714,1.049 2.723,1.049 l 0,0 c 1.016,0 1.987,-0.378 2.736,-1.062 l 0,0 70.747,-64.591 c 0.73,-0.666 1.158,-1.578 1.2,-2.567 l 0,0 c 0.043,-0.991 -0.303,-1.938 -0.975,-2.667 l 0,0 -13.198,-14.306 c -0.338,-0.364 -0.422,-0.874 -0.223,-1.328 l 0,0 c 0.199,-0.454 0.629,-0.734 1.124,-0.734 l 0,0 1.566,0 c 2.11,0 4.177,0.856 5.671,2.351 l 0,0 15.768,15.765 c 1.231,1.233 1.231,3.238 0,4.472 l 0,0 -82.526,82.521 c -0.597,0.597 -1.39,0.927 -2.234,0.927 l 0,0 c -0.844,0 -1.637,-0.33 -2.234,-0.927 m 25.133,-144.186 -20.365,-22.069 c -0.649,-0.705 -1.573,-1.109 -2.532,-1.109 l 0,0 c -0.96,0 -1.883,0.404 -2.536,1.109 l 0,0 -20.362,22.073 c -1.159,1.253 -2.801,1.971 -4.504,1.971 l 0,0 c -0.391,0 -0.652,-0.294 -0.766,-0.57 l 0,0 c -0.113,-0.274 -0.137,-0.667 0.139,-0.942 l 0,0 25.793,-25.793 c 0.597,-0.597 1.39,-0.925 2.234,-0.925 l 0,0 c 0.844,0 1.637,0.328 2.234,0.925 l 0,0 25.795,25.793 c 0.308,0.308 0.302,0.701 0.191,0.965 l 0,0 c -0.11,0.264 -0.382,0.547 -0.817,0.547 l 0,0 c -1.707,0 -3.348,-0.719 -4.504,-1.975"
         id="path58" />
    </clipPath>
    <linearGradient
       x1="0"
       y1="0"
       x2="1"
       y2="0"
       id="linearGradient64"
       gradientUnits="userSpaceOnUse"
       gradientTransform="matrix(171.36621,0,0,-171.36621,358.30957,650.21143)"
       spreadMethod="pad">
      <stop
         id="stop66"
         style="stop-color:#005e98;stop-opacity:1"
         offset="0" />
      <stop
         id="stop68"
         style="stop-color:#4275ab;stop-opacity:1"
         offset="0.5" />
      <stop
         id="stop70"
         style="stop-color:#005e98;stop-opacity:1"
         offset="1" />
    </linearGradient>
    <clipPath
       id="clipPath44">
      <path
         d="m 0,841.89 595.28,0 L 595.28,0 0,0 0,841.89 z"
         id="path46" />
    </clipPath>
    <clipPath
       id="clipPath22">
      <path
         d="m 407.142,642.523 c 0,-3.657 0.536,-7.275 1.596,-10.753 l 0,0 c 0.343,-1.125 1.437,-1.91 2.658,-1.91 l 0,0 c 0.427,0 0.811,0.185 1.079,0.523 l 0,0 c 0.29,0.363 0.396,0.838 0.289,1.302 l 0,0 c -0.536,2.345 -0.809,4.76 -0.809,7.179 l 0,0 c 0,17.663 14.371,32.033 32.037,32.033 l 0,0 c 17.664,0 32.035,-14.37 32.035,-32.033 l 0,0 c 0,-2.409 -0.271,-4.825 -0.807,-7.179 l 0,0 c -0.107,-0.464 -0.002,-0.938 0.287,-1.302 l 0,0 c 0.268,-0.338 0.652,-0.523 1.078,-0.523 l 0,0 c 1.223,0 2.319,0.785 2.662,1.91 l 0,0 c 1.058,3.467 1.594,7.085 1.594,10.753 l 0,0 c 0,20.318 -16.53,36.848 -36.849,36.848 l 0,0 c -20.32,0 -36.85,-16.53 -36.85,-36.848"
         id="path24" />
    </clipPath>
    <linearGradient
       x1="0"
       y1="0"
       x2="1"
       y2="0"
       id="linearGradient30"
       gradientUnits="userSpaceOnUse"
       gradientTransform="matrix(73.699219,0,0,-73.699219,407.1416,654.61523)"
       spreadMethod="pad">
      <stop
         id="stop32"
         style="stop-color:#005e98;stop-opacity:1"
         offset="0" />
      <stop
         id="stop34"
         style="stop-color:#4275ab;stop-opacity:1"
         offset="0.5" />
      <stop
         id="stop36"
         style="stop-color:#005e98;stop-opacity:1"
         offset="1" />
    </linearGradient>
    <linearGradient
       x1="0"
       y1="0"
       x2="1"
       y2="0"
       id="linearGradient2962"
       xlink:href="#linearGradient30"
       gradientUnits="userSpaceOnUse"
       gradientTransform="matrix(73.699219,0,0,-73.699219,407.1416,654.61523)"
       spreadMethod="pad" />
    <linearGradient
       x1="0"
       y1="0"
       x2="1"
       y2="0"
       id="linearGradient2964"
       xlink:href="#linearGradient64"
       gradientUnits="userSpaceOnUse"
       gradientTransform="matrix(171.36621,0,0,-171.36621,358.30957,650.21143)"
       spreadMethod="pad" />
    <linearGradient
       x1="0"
       y1="0"
       x2="1"
       y2="0"
       id="linearGradient2966"
       xlink:href="#linearGradient98"
       gradientUnits="userSpaceOnUse"
       gradientTransform="matrix(0,44.901367,44.901367,0,446.40527,596.72168)"
       spreadMethod="pad" />
    <filter
       x="-0.25"
       y="-0.25"
       width="1.5"
       height="1.5"
       color-interpolation-filters="sRGB"
       id="filter3122">
      <feGaussianBlur
         result="blur"
         stdDeviation="5,000000"
         in="SourceAlpha"
         id="feGaussianBlur3124" />
      <feColorMatrix
         values="1 0 0 0 0 0 1 0 0 0 0 0 1 0 0 0 0 0 0,500000 0 "
         type="matrix"
         result="bluralpha"
         id="feColorMatrix3126" />
      <feOffset
         result="offsetBlur"
         dy="4,000000"
         dx="4,000000"
         in="bluralpha"
         id="feOffset3128" />
      <feMerge
         id="feMerge3130">
        <feMergeNode
           in="offsetBlur"
           id="feMergeNode3132" />
        <feMergeNode
           in="SourceGraphic"
           id="feMergeNode3134" />
      </feMerge>
    </filter>
  </defs>
  <g
     transform="translate(0,-796.36218)"
     id="layer1">
    <g
       transform="matrix(0.9716312,0,0,0.9716312,3.3049631,34.733665)"
       id="g2931"
       style="filter:url(#filter3122)">
      <g
         transform="matrix(1.3398425,0,0,-1.3398425,-469.58144,1788.3622)"
         id="g18">
        <g
           clip-path="url(#clipPath22)"
           id="g20">
          <g
             id="g26">
            <g
               id="g28">
              <path
                 d="m 407.142,642.523 c 0,-3.657 0.536,-7.275 1.596,-10.753 l 0,0 c 0.343,-1.125 1.437,-1.91 2.658,-1.91 l 0,0 c 0.427,0 0.811,0.185 1.079,0.523 l 0,0 c 0.29,0.363 0.396,0.838 0.289,1.302 l 0,0 c -0.536,2.345 -0.809,4.76 -0.809,7.179 l 0,0 c 0,17.663 14.371,32.033 32.037,32.033 l 0,0 c 17.664,0 32.035,-14.37 32.035,-32.033 l 0,0 c 0,-2.409 -0.271,-4.825 -0.807,-7.179 l 0,0 c -0.107,-0.464 -0.002,-0.938 0.287,-1.302 l 0,0 c 0.268,-0.338 0.652,-0.523 1.078,-0.523 l 0,0 c 1.223,0 2.319,0.785 2.662,1.91 l 0,0 c 1.058,3.467 1.594,7.085 1.594,10.753 l 0,0 c 0,20.318 -16.53,36.848 -36.849,36.848 l 0,0 c -20.32,0 -36.85,-16.53 -36.85,-36.848"
                 id="path38"
                 style="fill:url(#linearGradient2962);stroke:none" />
            </g>
          </g>
        </g>
      </g>
      <g
         transform="matrix(1.3398425,0,0,-1.3398425,-469.58144,1788.3622)"
         id="g40">
        <g
           clip-path="url(#clipPath44)"
           id="g42">
          <g
             transform="translate(443.9912,679.6475)"
             id="g48">
            <path
               d="m 0,0 c -20.505,0 -37.126,-16.622 -37.126,-37.125 0,-3.768 0.564,-7.405 1.608,-10.833 0.389,-1.272 1.596,-2.106 2.923,-2.106 1.117,0 1.887,1.075 1.638,2.163 -0.524,2.289 -0.803,4.67 -0.803,7.118 0,17.539 14.221,31.756 31.76,31.756 17.541,0 31.76,-14.217 31.76,-31.756 0,-2.448 -0.281,-4.831 -0.801,-7.118 -0.251,-1.088 0.52,-2.163 1.635,-2.163 1.329,0 2.537,0.834 2.926,2.106 1.045,3.428 1.606,7.065 1.606,10.833 C 37.126,-16.622 20.503,0 0,0 m 0,-0.552 c 20.167,0 36.573,-16.406 36.573,-36.573 0,-3.64 -0.532,-7.23 -1.582,-10.671 -0.308,-1.011 -1.294,-1.716 -2.397,-1.716 -0.341,0 -0.647,0.149 -0.863,0.419 -0.236,0.298 -0.322,0.687 -0.234,1.07 0.541,2.374 0.816,4.81 0.816,7.24 0,17.815 -14.496,32.308 -32.313,32.308 -17.817,0 -32.313,-14.493 -32.313,-32.308 0,-2.44 0.276,-4.876 0.818,-7.241 0.087,-0.382 0.001,-0.771 -0.236,-1.069 -0.216,-0.27 -0.522,-0.419 -0.864,-0.419 -1.101,0 -2.086,0.705 -2.394,1.716 -1.052,3.451 -1.584,7.042 -1.584,10.671 0,20.167 16.406,36.573 36.573,36.573"
               id="path50"
               style="fill:#005e98;fill-opacity:1;fill-rule:nonzero;stroke:none" />
          </g>
        </g>
      </g>
      <g
         transform="matrix(1.3398425,0,0,-1.3398425,-469.58144,1788.3622)"
         id="g52">
        <g
           clip-path="url(#clipPath56)"
           id="g54">
          <g
             id="g60">
            <g
               id="g62">
              <path
                 d="m 441.758,734.969 -82.525,-82.521 c -1.231,-1.234 -1.231,-3.239 0,-4.472 l 0,0 15.77,-15.765 c 1.491,-1.495 3.558,-2.351 5.671,-2.351 l 0,0 1.562,0 c 0.495,0 0.927,0.281 1.125,0.734 l 0,0 c 0.2,0.454 0.116,0.964 -0.22,1.328 l 0,0 -13.201,14.306 c -0.672,0.728 -1.017,1.673 -0.971,2.663 l 0,0 c 0.044,0.989 0.475,1.898 1.207,2.561 l 0,0 71.437,64.614 c 0.747,0.676 1.714,1.049 2.723,1.049 l 0,0 c 1.016,0 1.987,-0.378 2.736,-1.062 l 0,0 70.747,-64.591 c 0.73,-0.666 1.158,-1.578 1.2,-2.567 l 0,0 c 0.043,-0.991 -0.303,-1.938 -0.975,-2.667 l 0,0 -13.198,-14.306 c -0.338,-0.364 -0.422,-0.874 -0.223,-1.328 l 0,0 c 0.199,-0.454 0.629,-0.734 1.124,-0.734 l 0,0 1.566,0 c 2.11,0 4.177,0.856 5.671,2.351 l 0,0 15.768,15.765 c 1.231,1.233 1.231,3.238 0,4.472 l 0,0 -82.526,82.521 c -0.597,0.597 -1.39,0.927 -2.234,0.927 l 0,0 c -0.844,0 -1.637,-0.33 -2.234,-0.927 m 25.133,-144.186 -20.365,-22.069 c -0.649,-0.705 -1.573,-1.109 -2.532,-1.109 l 0,0 c -0.96,0 -1.883,0.404 -2.536,1.109 l 0,0 -20.362,22.073 c -1.159,1.253 -2.801,1.971 -4.504,1.971 l 0,0 c -0.391,0 -0.652,-0.294 -0.766,-0.57 l 0,0 c -0.113,-0.274 -0.137,-0.667 0.139,-0.942 l 0,0 25.793,-25.793 c 0.597,-0.597 1.39,-0.925 2.234,-0.925 l 0,0 c 0.844,0 1.637,0.328 2.234,0.925 l 0,0 25.795,25.793 c 0.308,0.308 0.302,0.701 0.191,0.965 l 0,0 c -0.11,0.264 -0.382,0.547 -0.817,0.547 l 0,0 c -1.707,0 -3.348,-0.719 -4.504,-1.975"
                 id="path72"
                 style="fill:url(#linearGradient2964);stroke:none" />
            </g>
          </g>
        </g>
      </g>
      <g
         transform="matrix(1.3398425,0,0,-1.3398425,-469.58144,1788.3622)"
         id="g74">
        <g
           clip-path="url(#clipPath78)"
           id="g76">
          <g
             transform="translate(471.3945,593.0342)"
             id="g82">
            <path
               d="m 0,0 c -1.782,0 -3.497,-0.75 -4.706,-2.063 l -20.365,-22.07 c -0.627,-0.68 -1.479,-1.02 -2.33,-1.02 -0.852,0 -1.703,0.34 -2.332,1.02 L -50.096,-2.06 c -1.212,1.31 -2.923,2.06 -4.707,2.06 -0.952,0 -1.495,-1.311 -0.822,-1.983 l 25.793,-25.793 c 0.671,-0.672 1.551,-1.007 2.43,-1.007 0.879,0 1.758,0.335 2.429,1.007 L 0.822,-1.983 C 1.554,-1.25 1.032,0 0,0 m -27.402,143.137 c -0.879,0 -1.759,-0.335 -2.43,-1.007 l -82.524,-82.521 c -1.342,-1.344 -1.342,-3.52 0,-4.862 l 15.769,-15.765 c 1.552,-1.556 3.672,-2.433 5.866,-2.433 l 1.563,0 c 1.312,0 1.995,1.562 1.107,2.527 l -13.201,14.304 c -1.283,1.392 -1.186,3.564 0.22,4.833 l 71.436,64.615 c 0.72,0.651 1.628,0.976 2.537,0.976 0.914,0 1.83,-0.329 2.55,-0.989 L 46.238,58.224 c 1.401,-1.276 1.493,-3.45 0.208,-4.844 L 33.248,39.076 c -0.89,-0.965 -0.207,-2.527 1.105,-2.527 l 1.565,0 c 2.195,0 4.312,0.877 5.866,2.433 l 15.769,15.765 c 1.342,1.342 1.342,3.518 0,4.862 l -82.526,82.521 c -0.671,0.672 -1.55,1.007 -2.429,1.007 M 0,-0.552 c 0.377,0 0.526,-0.289 0.563,-0.377 C 0.6,-1.018 0.698,-1.326 0.432,-1.593 l -25.795,-25.793 c -0.545,-0.545 -1.27,-0.845 -2.039,-0.845 -0.77,0 -1.494,0.3 -2.039,0.845 l -25.793,25.793 c -0.18,0.179 -0.159,0.449 -0.079,0.642 0.08,0.193 0.255,0.399 0.51,0.399 1.627,0 3.195,-0.687 4.301,-1.883 l 20.363,-22.073 c 0.703,-0.761 1.701,-1.198 2.738,-1.198 1.037,0 2.034,0.437 2.736,1.199 L -4.3,-2.438 c 1.103,1.199 2.67,1.886 4.3,1.886 m -27.402,143.137 c 0.769,0 1.494,-0.3 2.039,-0.845 L 57.162,59.219 c 1.124,-1.126 1.124,-2.957 0,-4.082 L 41.394,39.372 c -1.442,-1.443 -3.438,-2.271 -5.476,-2.271 l -1.565,0 c -0.39,0 -0.715,0.213 -0.872,0.57 -0.157,0.358 -0.092,0.743 0.173,1.03 l 13.199,14.305 c 0.722,0.784 1.094,1.802 1.048,2.867 -0.047,1.063 -0.505,2.043 -1.291,2.759 l -70.746,64.591 c -0.8,0.731 -1.838,1.133 -2.923,1.133 -1.077,0 -2.11,-0.397 -2.907,-1.119 l -71.436,-64.613 c -0.789,-0.713 -1.251,-1.691 -1.3,-2.754 -0.049,-1.064 0.322,-2.081 1.044,-2.864 l 13.201,-14.304 c 0.265,-0.288 0.328,-0.673 0.171,-1.031 -0.156,-0.357 -0.483,-0.57 -0.872,-0.57 l -1.563,0 c -2.04,0 -4.036,0.828 -5.475,2.272 l -15.77,15.764 c -1.124,1.125 -1.124,2.956 0,4.081 l 82.525,82.522 c 0.545,0.545 1.269,0.845 2.039,0.845"
               id="path84"
               style="fill:#005e98;fill-opacity:1;fill-rule:nonzero;stroke:none" />
          </g>
        </g>
      </g>
      <g
         transform="matrix(1.3398425,0,0,-1.3398425,-469.58144,1788.3622)"
         id="g86">
        <g
           clip-path="url(#clipPath90)"
           id="g88">
          <g
             id="g94">
            <g
               id="g96">
              <path
                 d="m 454.803,641.623 -10.917,-30.674 c -0.038,-0.11 -0.142,-0.184 -0.259,-0.184 l 0,0 -0.001,0 c -0.117,10e-4 -0.22,0.075 -0.26,0.186 l 0,0 -10.75,30.672 -12.674,0 0,-2.298 c 1.134,-0.015 1.949,-0.123 2.487,-0.33 l 0,0 c 0.625,-0.239 1.044,-0.69 1.249,-1.342 l 0,0 c 0.188,-0.605 0.28,-1.519 0.279,-2.818 l 0,0 -2.801,-30.749 c 0,-1.375 -0.098,-2.319 -0.302,-2.883 l 0,0 c -0.217,-0.629 -0.659,-1.045 -1.316,-1.236 l 0,0 c -0.553,-0.159 -1.423,-0.242 -2.654,-0.252 l 0,0 0,-2.304 16.536,0 0,2.304 c -1.238,0.012 -2.11,0.103 -2.658,0.276 l 0,0 c -0.647,0.202 -1.086,0.623 -1.305,1.25 l 0,0 c -0.144,0.417 -0.387,1.34 -0.386,2.878 l 0,0 2.799,23.388 c 0.015,0.127 0.115,0.227 0.242,0.242 l 0,0 c 0.01,10e-4 0.021,0.002 0.031,0.002 l 0,0 c 0.114,0 0.22,-0.071 0.259,-0.181 l 0,0 11.344,-30.711 11.273,30.711 c 0.041,0.109 0.144,0.181 0.26,0.181 l 0,0 c 0.01,0 0.021,-10e-4 0.032,-0.002 l 0,0 c 0.127,-0.015 0.226,-0.115 0.242,-0.242 l 0,0 2.801,-23.421 c 0,-1.509 -0.241,-2.431 -0.387,-2.847 l 0,0 c -0.225,-0.628 -0.664,-1.047 -1.304,-1.247 l 0,0 c -0.549,-0.174 -1.421,-0.265 -2.659,-0.277 l 0,0 0,-2.304 16.533,0 0,2.304 c -1.228,0.01 -2.098,0.093 -2.651,0.253 l 0,0 c -0.656,0.189 -1.1,0.605 -1.317,1.231 l 0,0 c -0.205,0.568 -0.305,1.512 -0.304,2.862 l 0,0 -2.799,30.799 c 0,1.274 0.091,2.188 0.277,2.793 l 0,0 c 0.205,0.652 0.625,1.104 1.248,1.342 l 0,0 c 0.541,0.207 1.358,0.315 2.492,0.33 l 0,0 0,2.298 -12.68,0 z M 375.747,624.11 c -0.971,-0.613 -1.724,-1.243 -2.237,-1.867 l 0,0 c -0.237,-0.299 -0.756,-1.058 -1.546,-2.255 l 0,0 c -0.825,-1.246 -1.51,-2.244 -2.098,-3.05 l 0,0 c -0.605,-0.83 -1.271,-1.594 -1.979,-2.271 l 0,0 c -0.746,-0.711 -1.474,-1.128 -2.211,-1.242 l 0,0 -2.598,0 c -0.152,0 -0.276,0.123 -0.276,0.276 l 0,0 0,4.35 c 0,1.234 0.075,2.116 0.228,2.698 l 0,0 c 0.168,0.634 0.551,1.097 1.141,1.376 l 0,0 c 0.508,0.239 1.266,0.366 2.313,0.385 l 0,0 0,2.303 -14.436,0 0,-2.304 c 1.004,-0.019 1.752,-0.153 2.282,-0.406 l 0,0 c 0.604,-0.288 1.012,-0.762 1.212,-1.409 l 0,0 c 0.186,-0.605 0.279,-1.495 0.279,-2.648 l 0,0 0,-13.979 c 0,-1.098 -0.09,-1.958 -0.268,-2.557 l 0,0 c -0.197,-0.643 -0.605,-1.116 -1.211,-1.404 l 0,0 c -0.53,-0.254 -1.283,-0.388 -2.294,-0.409 l 0,0 0,-2.301 14.436,0 0,2.301 c -1.039,0.018 -1.796,0.141 -2.309,0.374 l 0,0 c -0.592,0.269 -0.976,0.727 -1.144,1.359 l 0,0 c -0.154,0.575 -0.229,1.44 -0.229,2.641 l 0,0 0,6.869 c 0,0.152 0.124,0.276 0.276,0.276 l 0,0 1.599,0 c 1.471,-0.035 2.555,-0.431 3.226,-1.18 l 0,0 c 0.634,-0.715 1.319,-1.837 2.04,-3.335 l 0,0 c 0.229,-0.501 0.556,-1.352 0.973,-2.532 l 0,0 c 0.422,-1.195 0.849,-2.225 1.268,-3.062 l 0,0 c 0.416,-0.831 0.97,-1.633 1.66,-2.396 l 0,0 c 0.302,-0.375 0.898,-0.773 1.77,-1.183 l 0,0 c 0.884,-0.42 1.833,-0.691 2.79,-0.806 l 0,0 0.919,0 c 1.138,0 2.298,0.194 3.445,0.577 l 0,0 c 1.077,0.361 1.981,0.866 2.691,1.501 l 0,0 -0.516,1.661 c -0.572,-0.349 -1.041,-0.519 -1.426,-0.519 l 0,0 c -1.196,0 -2.476,0.938 -3.929,2.892 l 0,0 -2.846,4.697 c -0.336,0.586 -0.891,1.261 -1.65,2.006 l 0,0 c -0.758,0.746 -1.672,1.436 -2.717,2.051 l 0,0 c -1.035,0.604 -2.093,0.996 -3.146,1.167 l 0,0 c -0.123,0.019 -0.216,0.119 -0.23,0.242 l 0,0 c -0.013,0.123 0.057,0.24 0.172,0.286 l 0,0 c 0.403,0.161 0.824,0.463 1.25,0.894 l 0,0 c 0.446,0.457 0.934,1.029 1.45,1.698 l 0,0 c 0.528,0.683 1.123,1.448 1.78,2.294 l 0,0 c 0.659,0.85 1.263,1.553 1.797,2.089 l 0,0 c 0.217,0.217 0.608,0.323 1.196,0.323 l 0,0 c 0.686,0 1.23,-0.197 1.616,-0.582 l 0,0 c 0.785,-0.78 1.539,-1.176 2.241,-1.176 l 0,0 c 0.155,0 0.447,0.053 0.957,0.309 l 0,0 c 0.503,0.252 0.884,0.624 1.135,1.108 l 0,0 c 0.26,0.494 0.39,1.027 0.39,1.582 l 0,0 0.002,0.474 c -0.076,0.715 -0.481,1.339 -1.237,1.906 l 0,0 c -0.761,0.576 -1.691,0.868 -2.761,0.868 l 0,0 -0.154,10e-4 c -1.096,-0.035 -2.134,-0.358 -3.086,-0.961 m 138.937,0.703 0,-2.291 c 1.132,-0.014 1.948,-0.123 2.491,-0.328 l 0,0 c 0.626,-0.239 1.046,-0.693 1.247,-1.346 l 0,0 c 0.188,-0.592 0.279,-1.506 0.279,-2.793 l 0,0 0,-13.984 c 0,-0.998 -0.045,-1.736 -0.136,-2.255 l 0,0 c -0.098,-0.551 -0.3,-0.99 -0.605,-1.309 l 0,0 c -0.306,-0.32 -0.752,-0.54 -1.326,-0.654 l 0,0 c -0.49,-0.095 -1.145,-0.147 -1.95,-0.157 l 0,0 0,-2.3 15.017,0 0,2.3 c -1.122,0.015 -1.958,0.117 -2.489,0.306 l 0,0 c -0.627,0.224 -1.047,0.662 -1.248,1.3 l 0,0 c -0.188,0.584 -0.279,1.49 -0.279,2.769 l 0,0 0,5.439 c 0,0.152 0.124,0.276 0.276,0.276 l 0,0 4.693,0 c 1.79,0 3.473,0.239 5.003,0.713 l 0,0 c 1.503,0.463 2.745,1.254 3.696,2.351 l 0,0 c 0.935,1.078 1.408,2.52 1.408,4.287 l 0,0 c 0,2.03 -0.494,3.629 -1.469,4.751 l 0,0 c -0.98,1.125 -2.269,1.901 -3.833,2.305 l 0,0 c -1.588,0.411 -3.432,0.62 -5.481,0.62 l 0,0 -15.294,0 z m 11.001,-12.791 0,9.971 c 0,0.153 0.124,0.277 0.276,0.277 l 0,0 3.432,0 c 1.419,0 2.479,-0.538 3.15,-1.598 l 0,0 c 0.651,-1.018 0.981,-2.262 0.981,-3.699 l 0,0 c 0,-1.549 -0.467,-2.819 -1.387,-3.775 l 0,0 c -0.924,-0.963 -2.184,-1.452 -3.744,-1.452 l 0,0 -2.432,0 c -0.152,0 -0.276,0.124 -0.276,0.276 m -30.607,12.791 0,-2.308 c 0.585,-0.044 1.306,-0.283 2.191,-0.726 l 0,0 c 1.041,-0.515 1.57,-1.234 1.57,-2.137 l 0,0 0,-0.255 c 0,-0.073 -0.028,-0.142 -0.081,-0.193 l 0,0 -12.307,-12.478 c -0.052,-0.054 -0.124,-0.083 -0.196,-0.083 l 0,0 c -0.035,0 -0.071,0.008 -0.105,0.021 l 0,0 c -0.103,0.043 -0.172,0.144 -0.172,0.256 l 0,0 0,11.136 c 0,1.271 0.091,2.184 0.278,2.793 l 0,0 c 0.206,0.652 0.626,1.104 1.248,1.342 l 0,0 c 0.538,0.206 1.354,0.315 2.492,0.329 l 0,0 0,2.303 -15.028,0 0,-2.303 c 1.146,-0.014 1.965,-0.123 2.499,-0.329 l 0,0 c 0.628,-0.239 1.05,-0.691 1.251,-1.344 l 0,0 c 0.186,-0.602 0.28,-1.541 0.28,-2.791 l 0,0 0,-13.979 c 0,-0.976 -0.046,-1.735 -0.137,-2.258 l 0,0 c -0.104,-0.562 -0.303,-0.988 -0.607,-1.301 l 0,0 c -0.304,-0.321 -0.753,-0.542 -1.337,-0.655 l 0,0 c -0.493,-0.095 -1.148,-0.147 -1.949,-0.157 l 0,0 0,-2.3 15.028,0 0,2.252 c -0.131,-0.03 -0.231,-0.046 -0.306,-0.046 l 0,0 c -1.009,0 -1.857,0.272 -2.516,0.808 l 0,0 c -0.685,0.549 -1.034,1.189 -1.034,1.9 l 0,0 c 0,0.064 0.017,0.188 0.053,0.373 l 0,0 c 0.025,0.131 0.038,0.231 0.038,0.292 l 0,0 c 0,0.074 0.031,0.145 0.082,0.197 l 0,0 12.313,12.139 c 0.052,0.052 0.123,0.08 0.194,0.08 l 0,0 c 0.037,0 0.072,-0.007 0.107,-0.021 l 0,0 c 0.102,-0.044 0.17,-0.143 0.17,-0.255 l 0,0 0,-11.048 c 0,-0.972 -0.047,-1.73 -0.139,-2.255 l 0,0 c -0.097,-0.546 -0.299,-0.986 -0.604,-1.304 l 0,0 c -0.302,-0.32 -0.749,-0.541 -1.325,-0.655 l 0,0 c -0.49,-0.095 -1.145,-0.147 -1.951,-0.157 l 0,0 0,-2.3 15.017,0 0,2.3 c -1.122,0.015 -1.959,0.117 -2.491,0.306 l 0,0 c -0.623,0.224 -1.044,0.662 -1.25,1.301 l 0,0 c -0.186,0.592 -0.277,1.495 -0.277,2.764 l 0,0 0,13.979 c 0,1.271 0.091,2.184 0.277,2.792 l 0,0 c 0.205,0.652 0.624,1.102 1.249,1.343 l 0,0 c 0.538,0.206 1.354,0.315 2.492,0.329 l 0,0 0,2.303 -15.017,0 z m -88.957,0 0,-2.301 1.74,0 c 1.681,0 2.034,-0.788 2.034,-1.448 l 0,0 c 0,-0.487 -0.175,-1.076 -0.539,-1.811 l 0,0 -5.108,-9.202 c -0.047,-0.086 -0.136,-0.14 -0.234,-0.142 l 0,0 c -0.002,-10e-4 -0.005,-10e-4 -0.008,-10e-4 l 0,0 c -0.095,0 -0.184,0.05 -0.234,0.132 l 0,0 -6.141,9.931 c -0.024,0.068 -0.081,0.188 -0.177,0.371 l 0,0 c -0.116,0.236 -0.176,0.479 -0.176,0.722 l 0,0 c 0,0.752 0.355,1.072 0.657,1.209 l 0,0 c 0.368,0.161 0.876,0.239 1.552,0.239 l 0,0 0.726,0 0,2.301 -14.946,0 0,-2.301 0.315,0 c 1.11,0 2.053,-0.24 2.805,-0.715 l 0,0 c 0.741,-0.473 1.452,-1.293 2.107,-2.422 l 0,0 9.233,-13.91 c 0.099,-0.173 0.227,-0.431 0.374,-0.782 l 0,0 c 0.162,-0.369 0.245,-0.743 0.245,-1.115 l 0,0 c 0,-0.24 -0.125,-0.561 -0.382,-0.981 l 0,0 c -0.254,-0.415 -0.499,-0.692 -0.782,-0.864 l 0,0 -0.173,-0.08 c -0.036,-0.016 -0.075,-0.025 -0.116,-0.025 l 0,0 c -0.226,0 -0.5,0.121 -0.836,0.37 l 0,0 c -0.294,0.217 -0.523,0.395 -0.689,0.539 l 0,0 c -1.032,0.949 -1.984,1.431 -2.829,1.431 l 0,0 c -0.344,0 -0.666,-0.073 -0.968,-0.222 l 0,0 c -0.5,-0.22 -0.936,-0.632 -1.3,-1.225 l 0,0 c -0.368,-0.598 -0.554,-1.201 -0.554,-1.793 l 0,0 c 0,-0.007 0.002,-0.07 0.069,-0.261 l 0,0 c 0.069,-0.187 0.105,-0.35 0.102,-0.449 l 0,0 c 0.048,-0.367 0.246,-0.785 0.588,-1.247 l 0,0 c 0.34,-0.459 0.849,-0.864 1.514,-1.203 l 0,0 c 0.657,-0.331 1.462,-0.498 2.39,-0.498 l 0,0 0.249,0 c 0.97,0.037 2.022,0.515 3.127,1.419 l 0,0 c 1.127,0.921 2.141,2.143 3.007,3.632 l 0,0 10.135,17.753 c 0.456,0.77 1.13,1.4 2.006,1.875 l 0,0 c 0.807,0.435 1.752,0.691 2.811,0.759 l 0,0 0,2.315 -11.594,0 z"
                 id="path106"
                 style="fill:url(#linearGradient2966);stroke:none" />
            </g>
          </g>
        </g>
      </g>
      <g
         transform="matrix(1.3398425,0,0,-1.3398425,-469.58144,1788.3622)"
         id="g108">
        <g
           clip-path="url(#clipPath112)"
           id="g110">
          <g
             transform="translate(417.9912,625.0894)"
             id="g116">
            <path
               d="m 0,0 -12.146,0 0,-2.854 2.016,0 c 1.172,0 1.758,-0.39 1.758,-1.171 0,-0.436 -0.166,-0.995 -0.504,-1.677 l -5.108,-9.202 -6.116,9.878 c -0.026,0.074 -0.088,0.206 -0.189,0.401 -0.097,0.195 -0.148,0.396 -0.148,0.6 0,0.489 0.165,0.807 0.492,0.955 0.327,0.144 0.806,0.216 1.441,0.216 l 1.002,0 0,2.854 -15.499,0 0,-2.854 0.592,0 c 1.066,0 1.949,-0.224 2.656,-0.67 0.706,-0.452 1.38,-1.23 2.025,-2.344 l 9.224,-13.894 c 0.096,-0.166 0.218,-0.414 0.361,-0.756 0.15,-0.339 0.221,-0.673 0.221,-1.003 0,-0.183 -0.112,-0.463 -0.341,-0.837 -0.229,-0.375 -0.449,-0.626 -0.661,-0.757 l -0.174,-0.08 c -0.161,0 -0.385,0.104 -0.673,0.317 -0.287,0.211 -0.509,0.383 -0.666,0.52 -1.089,1.002 -2.095,1.503 -3.015,1.503 -0.388,0 -0.749,-0.083 -1.079,-0.246 -0.554,-0.244 -1.03,-0.689 -1.424,-1.333 -0.397,-0.644 -0.596,-1.291 -0.596,-1.938 0,-0.075 0.03,-0.194 0.087,-0.357 0.061,-0.163 0.087,-0.293 0.087,-0.39 0.056,-0.415 0.271,-0.874 0.64,-1.373 0.371,-0.502 0.911,-0.928 1.612,-1.286 0.7,-0.352 1.537,-0.528 2.514,-0.528 l 0.254,0 c 1.038,0.038 2.136,0.532 3.296,1.482 1.165,0.951 2.188,2.19 3.073,3.709 l 10.133,17.749 c 0.43,0.728 1.062,1.319 1.898,1.772 0.842,0.454 1.828,0.701 2.957,0.74 L 0,0 z m 92.38,0 -15.569,0 0,-2.854 0.084,0 c 0.564,0 1.317,-0.232 2.26,-0.705 0.946,-0.466 1.416,-1.099 1.416,-1.889 l 0,-0.254 -12.307,-12.478 0,11.137 c 0,1.235 0.089,2.137 0.264,2.71 0.18,0.57 0.538,0.958 1.084,1.166 0.546,0.21 1.435,0.313 2.669,0.313 l 0,2.854 -15.581,0 0,-2.854 c 1.24,0 2.135,-0.103 2.678,-0.313 0.549,-0.208 0.909,-0.596 1.085,-1.166 0.177,-0.573 0.267,-1.475 0.267,-2.71 l 0,-13.979 c 0,-0.973 -0.044,-1.707 -0.131,-2.207 -0.092,-0.496 -0.266,-0.884 -0.536,-1.163 -0.265,-0.279 -0.663,-0.471 -1.189,-0.573 -0.528,-0.101 -1.255,-0.154 -2.174,-0.154 l 0,-2.851 15.581,0 0,2.851 c -0.074,0 -0.177,-0.016 -0.305,-0.045 -0.128,-0.031 -0.223,-0.046 -0.277,-0.046 -0.948,0 -1.73,0.248 -2.344,0.746 -0.621,0.498 -0.929,1.058 -0.929,1.685 0,0.055 0.015,0.161 0.046,0.32 0.03,0.154 0.045,0.272 0.045,0.345 l 12.312,12.139 0,-11.047 c 0,-0.973 -0.047,-1.707 -0.135,-2.207 -0.087,-0.496 -0.265,-0.884 -0.531,-1.163 -0.265,-0.279 -0.66,-0.471 -1.179,-0.573 -0.523,-0.101 -1.247,-0.154 -2.173,-0.154 l 0,-2.851 15.569,0 0,2.851 c -1.24,0 -2.132,0.099 -2.673,0.291 -0.54,0.195 -0.901,0.569 -1.08,1.124 -0.176,0.558 -0.265,1.451 -0.265,2.682 l 0,13.979 c 0,1.235 0.089,2.137 0.265,2.71 0.179,0.57 0.54,0.958 1.083,1.166 0.547,0.21 1.437,0.313 2.67,0.313 l 0,2.854 z m 15.59,-13.066 0,9.97 3.432,0 c 1.325,0 2.296,-0.49 2.918,-1.47 0.624,-0.976 0.937,-2.161 0.937,-3.55 0,-1.48 -0.435,-2.675 -1.311,-3.584 -0.87,-0.907 -2.051,-1.366 -3.545,-1.366 l -2.431,0 z M 111.986,0 l -15.57,0 0,-2.842 c 1.233,0 2.124,-0.104 2.669,-0.311 0.546,-0.209 0.906,-0.599 1.083,-1.171 0.18,-0.571 0.265,-1.476 0.265,-2.71 l 0,-13.985 c 0,-0.976 -0.044,-1.71 -0.131,-2.207 -0.088,-0.499 -0.266,-0.887 -0.532,-1.166 -0.268,-0.279 -0.659,-0.47 -1.18,-0.573 -0.524,-0.101 -1.246,-0.154 -2.174,-0.154 l 0,-2.851 15.57,0 0,2.851 c -1.24,0 -2.132,0.099 -2.673,0.291 -0.542,0.195 -0.902,0.569 -1.078,1.124 -0.178,0.558 -0.265,1.451 -0.265,2.685 l 0,5.439 4.692,0 c 1.827,0 3.522,0.242 5.085,0.726 1.566,0.483 2.837,1.296 3.823,2.434 0.987,1.137 1.477,2.625 1.477,4.468 0,2.111 -0.514,3.753 -1.538,4.932 -1.024,1.175 -2.348,1.971 -3.971,2.391 C 115.917,-0.209 114.066,0 111.986,0 m -150.99,0.257 -0.163,0 c -1.153,-0.036 -2.229,-0.371 -3.225,-1.002 -1.002,-0.634 -1.77,-1.278 -2.306,-1.93 -0.24,-0.305 -0.759,-1.06 -1.56,-2.274 -0.801,-1.212 -1.498,-2.227 -2.091,-3.04 -0.593,-0.815 -1.242,-1.561 -1.946,-2.234 -0.707,-0.674 -1.38,-1.063 -2.019,-1.166 l -2.599,0 0,4.35 c 0,1.2 0.073,2.075 0.22,2.629 0.145,0.555 0.476,0.953 0.991,1.196 0.514,0.243 1.339,0.36 2.471,0.36 l 0,2.854 -14.988,0 0,-2.854 c 1.09,0 1.903,-0.126 2.439,-0.381 0.534,-0.255 0.889,-0.668 1.067,-1.241 0.176,-0.575 0.267,-1.427 0.267,-2.567 l 0,-13.979 c 0,-1.082 -0.087,-1.908 -0.256,-2.476 -0.174,-0.568 -0.527,-0.981 -1.067,-1.236 -0.535,-0.257 -1.352,-0.385 -2.45,-0.385 l 0,-2.851 14.988,0 0,2.851 c -1.132,0 -1.957,0.119 -2.471,0.352 -0.515,0.234 -0.846,0.627 -0.991,1.178 -0.147,0.548 -0.22,1.404 -0.22,2.57 l 0,6.87 1.593,0 c 1.401,-0.034 2.406,-0.396 3.025,-1.087 0.614,-0.694 1.282,-1.784 1.996,-3.267 0.218,-0.478 0.541,-1.315 0.963,-2.509 0.422,-1.196 0.848,-2.228 1.282,-3.093 0.432,-0.866 0.997,-1.679 1.692,-2.445 0.328,-0.408 0.948,-0.829 1.867,-1.261 0.916,-0.435 1.886,-0.712 2.908,-0.833 l 0.919,0 c 1.171,0 2.35,0.197 3.533,0.592 1.183,0.397 2.155,0.954 2.918,1.677 l -0.677,2.176 c -0.666,-0.451 -1.194,-0.672 -1.581,-0.672 -1.091,0 -2.321,0.918 -3.692,2.759 l -2.843,4.692 c -0.347,0.607 -0.911,1.295 -1.696,2.064 -0.784,0.773 -1.707,1.467 -2.771,2.092 -1.064,0.621 -2.141,1.024 -3.241,1.202 0.444,0.177 0.89,0.495 1.345,0.957 0.454,0.465 0.944,1.038 1.472,1.721 0.528,0.684 1.122,1.449 1.78,2.295 0.656,0.848 1.247,1.534 1.774,2.063 0.16,0.161 0.495,0.241 0.999,0.241 0.617,0 1.087,-0.167 1.422,-0.501 0.84,-0.835 1.649,-1.256 2.436,-1.256 0.269,0 0.632,0.113 1.08,0.337 0.559,0.28 0.979,0.69 1.257,1.227 0.282,0.54 0.422,1.11 0.422,1.71 l 0,0.504 c -0.084,0.785 -0.529,1.484 -1.345,2.097 -0.814,0.615 -1.791,0.924 -2.928,0.924 m 88.773,16.553 -13.152,0 -10.981,-30.857 -10.816,30.857 -13.146,0 0,-2.849 c 1.232,0 2.121,-0.104 2.666,-0.314 C 4.885,13.439 5.245,13.05 5.423,12.481 5.603,11.905 5.69,11.003 5.69,9.771 L 2.889,-21.003 c 0,-1.322 -0.093,-2.254 -0.286,-2.793 C 2.414,-24.34 2.035,-24.692 1.471,-24.856 0.904,-25.02 -0.047,-25.1 -1.383,-25.1 l 0,-2.855 17.088,0 0,2.855 c -1.345,0 -2.294,0.088 -2.852,0.266 -0.561,0.175 -0.937,0.532 -1.126,1.076 -0.189,0.543 -0.373,1.46 -0.373,2.755 l 2.798,23.388 11.604,-31.414 11.531,31.414 2.799,-23.388 c 0,-1.295 -0.182,-2.212 -0.37,-2.755 -0.195,-0.544 -0.57,-0.901 -1.128,-1.076 -0.559,-0.178 -1.512,-0.266 -2.852,-0.266 l 0,-2.855 17.086,0 0,2.855 c -1.336,0 -2.284,0.08 -2.85,0.244 -0.568,0.164 -0.946,0.516 -1.134,1.06 -0.195,0.539 -0.289,1.471 -0.289,2.793 L 45.751,9.771 c 0,1.232 0.087,2.134 0.265,2.71 0.178,0.569 0.538,0.958 1.083,1.166 0.547,0.21 1.434,0.314 2.67,0.314 l 0,2.849 z m -50.322,-17.362 0,-1.784 C -1.548,-2.43 -2.442,-2.689 -3.221,-3.108 -4.14,-3.606 -4.85,-4.271 -5.335,-5.092 l -10.131,-17.745 c -0.851,-1.462 -1.842,-2.66 -2.944,-3.56 -1.059,-0.867 -2.057,-1.323 -2.947,-1.357 l -0.254,0 c -0.885,0 -1.647,0.158 -2.263,0.468 -0.628,0.32 -1.105,0.698 -1.419,1.122 -0.305,0.412 -0.483,0.779 -0.532,1.092 -0.007,0.159 -0.046,0.334 -0.118,0.527 -0.043,0.123 -0.054,0.176 -0.055,0.176 l 0,0 c 0,0.539 0.173,1.093 0.514,1.647 0.333,0.543 0.728,0.919 1.198,1.126 0.252,0.125 0.532,0.188 0.834,0.188 0.773,0 1.663,-0.456 2.652,-1.367 0.163,-0.142 0.393,-0.321 0.7,-0.547 0.392,-0.29 0.71,-0.426 1.002,-0.426 0.08,0 0.159,0.018 0.232,0.051 l 0.174,0.08 c 0.019,0.01 0.04,0.02 0.058,0.032 0.29,0.179 0.566,0.485 0.843,0.939 0.287,0.471 0.422,0.828 0.422,1.125 0,0.41 -0.091,0.822 -0.265,1.217 -0.141,0.338 -0.273,0.613 -0.41,0.848 l -9.206,13.865 c -0.695,1.199 -1.416,2.028 -2.208,2.534 -0.795,0.501 -1.787,0.756 -2.951,0.756 l -0.039,0 0,1.749 14.393,0 0,-1.749 -0.449,0 c -0.716,0 -1.261,-0.086 -1.67,-0.266 -0.372,-0.169 -0.815,-0.558 -0.815,-1.458 0,-0.286 0.069,-0.57 0.21,-0.856 0.084,-0.161 0.136,-0.268 0.159,-0.329 0.013,-0.038 0.03,-0.073 0.051,-0.107 l 6.115,-9.878 c 0.1,-0.163 0.278,-0.262 0.47,-0.262 l 0.012,0 c 0.197,0.005 0.375,0.113 0.47,0.285 l 5.121,9.225 c 0.378,0.762 0.562,1.391 0.562,1.922 0,0.644 -0.301,1.724 -2.311,1.724 l -1.464,0 0,1.749 11.041,0 m 92.38,0 0,-1.757 C 90.796,-2.337 90.035,-2.45 89.512,-2.651 88.815,-2.918 88.327,-3.443 88.099,-4.171 87.904,-4.805 87.81,-5.744 87.81,-7.043 l 0,-13.979 c 0,-1.297 0.095,-2.228 0.292,-2.851 0.228,-0.713 0.719,-1.223 1.42,-1.475 0.523,-0.186 1.281,-0.29 2.305,-0.316 l 0,-1.753 -14.464,0 0,1.753 c 0.7,0.018 1.279,0.07 1.729,0.157 0.634,0.125 1.129,0.373 1.471,0.735 0.342,0.359 0.57,0.846 0.675,1.447 0.095,0.541 0.144,1.316 0.144,2.303 l 0,11.047 c 0,0.223 -0.134,0.424 -0.34,0.51 -0.068,0.028 -0.141,0.043 -0.213,0.043 -0.142,0 -0.282,-0.056 -0.388,-0.159 l -12.312,-12.14 c -0.106,-0.103 -0.164,-0.246 -0.165,-0.393 0,-0.051 -0.014,-0.132 -0.035,-0.241 -0.039,-0.208 -0.056,-0.331 -0.056,-0.424 0,-0.8 0.383,-1.512 1.134,-2.114 0.712,-0.577 1.617,-0.87 2.692,-0.87 0.009,0 0.019,0 0.03,0.001 l 0,-1.655 -14.476,0 0,1.753 c 0.695,0.018 1.274,0.07 1.726,0.157 0.641,0.124 1.141,0.372 1.48,0.731 0.345,0.355 0.568,0.828 0.684,1.452 0.094,0.542 0.14,1.296 0.14,2.302 l 0,13.979 c 0,1.296 -0.095,2.235 -0.293,2.872 -0.227,0.738 -0.704,1.25 -1.413,1.52 -0.521,0.201 -1.285,0.314 -2.324,0.342 l 0,1.757 14.476,0 0,-1.757 C 70.697,-2.337 69.937,-2.45 69.415,-2.65 68.709,-2.92 68.233,-3.431 68,-4.171 67.806,-4.805 67.711,-5.744 67.711,-7.043 l 0,-11.137 c 0,-0.224 0.136,-0.425 0.343,-0.511 0.068,-0.028 0.139,-0.041 0.21,-0.041 0.144,0 0.287,0.057 0.393,0.165 L 80.965,-6.09 c 0.101,0.103 0.159,0.243 0.159,0.388 l 0,0.254 c 0,0.699 -0.3,1.681 -1.722,2.383 -0.796,0.399 -1.468,0.639 -2.039,0.726 l 0,1.787 14.464,0 m 16.143,-13.067 2.431,0 c 1.639,0 2.966,0.517 3.943,1.536 0.972,1.009 1.466,2.343 1.466,3.967 0,1.49 -0.345,2.785 -1.023,3.846 -0.727,1.145 -1.866,1.726 -3.385,1.726 l -3.432,0 c -0.305,0 -0.553,-0.247 -0.553,-0.552 l 0,-9.97 c 0,-0.306 0.248,-0.553 0.553,-0.553 m 4.016,13.067 c 2.027,0 3.848,-0.206 5.413,-0.612 1.508,-0.39 2.75,-1.136 3.693,-2.218 0.93,-1.071 1.402,-2.609 1.402,-4.57 0,-1.722 -0.438,-3.065 -1.341,-4.106 -0.917,-1.057 -2.117,-1.821 -3.569,-2.269 -1.503,-0.465 -3.159,-0.701 -4.922,-0.701 l -4.692,0 c -0.305,0 -0.553,-0.247 -0.553,-0.552 l 0,-5.439 c 0,-1.307 0.096,-2.241 0.292,-2.851 0.227,-0.715 0.717,-1.227 1.42,-1.478 0.521,-0.186 1.279,-0.29 2.305,-0.316 l 0,-1.753 -14.465,0 0,1.753 c 0.699,0.018 1.278,0.07 1.728,0.157 0.631,0.125 1.125,0.372 1.472,0.734 0.343,0.358 0.57,0.846 0.677,1.452 0.093,0.535 0.139,1.288 0.139,2.302 l 0,13.985 c 0,1.315 -0.095,2.256 -0.29,2.873 -0.225,0.729 -0.714,1.256 -1.415,1.525 -0.525,0.199 -1.285,0.311 -2.311,0.339 l 0,1.745 15.017,0 m -150.99,0.257 c 1.009,0 1.882,-0.274 2.596,-0.814 0.68,-0.511 1.049,-1.062 1.124,-1.686 l 0,-0.473 c 0,-0.509 -0.12,-0.998 -0.361,-1.456 -0.224,-0.436 -0.555,-0.759 -1.012,-0.987 -0.486,-0.243 -0.731,-0.279 -0.833,-0.279 -0.626,0 -1.315,0.368 -2.045,1.094 -0.442,0.44 -1.051,0.664 -1.813,0.664 -0.674,0 -1.116,-0.129 -1.389,-0.404 -0.544,-0.545 -1.157,-1.256 -1.82,-2.114 -0.659,-0.847 -1.253,-1.612 -1.782,-2.296 -0.51,-0.661 -0.99,-1.224 -1.428,-1.671 -0.399,-0.406 -0.788,-0.685 -1.155,-0.832 -0.231,-0.092 -0.372,-0.326 -0.345,-0.573 0.028,-0.247 0.216,-0.445 0.46,-0.485 1.02,-0.165 2.046,-0.547 3.05,-1.133 1.026,-0.603 1.922,-1.279 2.664,-2.01 0.741,-0.727 1.28,-1.381 1.611,-1.957 l 2.842,-4.691 c 0.01,-0.015 0.02,-0.03 0.03,-0.044 1.494,-2.006 2.846,-2.981 4.135,-2.981 0.363,0 0.78,0.126 1.264,0.384 l 0.361,-1.16 c -0.66,-0.556 -1.486,-1.002 -2.46,-1.329 -1.12,-0.374 -2.25,-0.564 -3.358,-0.564 l -0.886,0 c -0.948,0.115 -1.857,0.378 -2.707,0.781 -1.038,0.488 -1.481,0.871 -1.692,1.132 -0.662,0.731 -1.203,1.512 -1.608,2.322 -0.414,0.825 -0.836,1.844 -1.254,3.029 -0.419,1.187 -0.749,2.046 -0.986,2.564 -0.73,1.517 -1.429,2.659 -2.083,3.397 -0.722,0.806 -1.874,1.233 -3.436,1.27 l -1.593,0 c -0.305,0 -0.553,-0.247 -0.553,-0.552 l 0,-6.87 c 0,-1.225 0.078,-2.112 0.238,-2.711 0.187,-0.707 0.635,-1.239 1.297,-1.54 0.501,-0.227 1.206,-0.356 2.147,-0.391 l 0,-1.756 -13.882,0 0,1.757 c 0.917,0.039 1.619,0.18 2.135,0.427 0.679,0.322 1.136,0.852 1.358,1.578 0.188,0.631 0.279,1.492 0.279,2.633 l 0,13.979 c 0,1.196 -0.095,2.089 -0.292,2.73 -0.223,0.723 -0.68,1.253 -1.357,1.577 -0.516,0.245 -1.214,0.385 -2.123,0.423 l 0,1.761 13.882,0 0,-1.759 c -0.949,-0.036 -1.657,-0.169 -2.154,-0.403 -0.667,-0.316 -1.102,-0.839 -1.29,-1.555 -0.16,-0.606 -0.238,-1.512 -0.238,-2.77 l 0,-4.35 c 0,-0.305 0.248,-0.552 0.553,-0.552 l 2.599,0 c 0.029,0 0.058,0.003 0.087,0.007 0.748,0.12 1.527,0.561 2.314,1.312 0.72,0.688 1.396,1.465 2.011,2.308 0.59,0.81 1.279,1.811 2.105,3.061 0.785,1.19 1.301,1.942 1.526,2.227 0.498,0.606 1.229,1.216 2.175,1.814 0.909,0.576 1.901,0.884 2.929,0.917 l 0.163,0 m 88.22,16.553 0,-1.752 c -1.028,-0.029 -1.789,-0.142 -2.315,-0.342 -0.696,-0.266 -1.184,-0.791 -1.413,-1.52 -0.195,-0.631 -0.29,-1.571 -0.29,-2.873 0,-0.017 10e-4,-0.034 0.003,-0.05 l 2.795,-30.749 c 0.002,-1.394 0.108,-2.362 0.32,-2.949 0.246,-0.71 0.765,-1.197 1.503,-1.41 0.534,-0.154 1.339,-0.239 2.451,-0.26 l 0,-1.756 -15.981,0 0,1.757 c 1.123,0.022 1.933,0.116 2.464,0.285 0.728,0.228 1.227,0.704 1.484,1.422 0.151,0.431 0.402,1.386 0.402,2.936 0,0.022 -0.002,0.044 -0.004,0.065 L 37.836,2.451 C 37.805,2.705 37.604,2.904 37.352,2.934 37.33,2.937 37.309,2.938 37.287,2.938 37.058,2.938 36.85,2.795 36.769,2.576 L 25.754,-27.431 14.671,2.577 c -0.081,0.218 -0.289,0.361 -0.519,0.361 -0.021,0 -0.043,-0.001 -0.064,-0.004 -0.254,-0.03 -0.454,-0.23 -0.484,-0.483 l -2.798,-23.389 c -0.002,-0.021 -0.004,-0.043 -0.004,-0.065 0,-1.545 0.253,-2.503 0.403,-2.936 0.245,-0.705 0.758,-1.196 1.481,-1.421 0.532,-0.17 1.342,-0.264 2.466,-0.286 l 0,-1.757 -15.982,0 0,1.756 c 1.113,0.021 1.92,0.106 2.455,0.26 0.735,0.214 1.254,0.701 1.497,1.404 0.214,0.594 0.317,1.561 0.319,2.955 L 6.24,9.72 c 0.002,0.017 0.003,0.034 0.003,0.051 0,1.303 -0.096,2.243 -0.293,2.875 -0.227,0.727 -0.716,1.251 -1.412,1.517 -0.523,0.201 -1.283,0.314 -2.311,0.343 l 0,1.752 12.202,0 10.685,-30.488 c 0.078,-0.221 0.286,-0.369 0.521,-0.37 l 10e-4,0 c 0.233,0 0.442,0.147 0.52,0.368 l 10.851,30.49 12.209,0"
               id="path118"
               style="fill:#005e98;fill-opacity:1;fill-rule:nonzero;stroke:none" />
          </g>
          <g
             transform="translate(462.8301,681.7949)"
             id="g120">
            <path
               d="m 0,0 c -0.225,-0.167 -0.463,-0.292 -0.714,-0.379 -0.251,-0.086 -0.507,-0.125 -0.769,-0.117 -0.259,0.007 -0.52,0.064 -0.777,0.174 -0.398,0.163 -0.68,0.389 -0.853,0.683 -0.174,0.286 -0.249,0.611 -0.235,0.967 0.022,0.353 0.114,0.728 0.281,1.12 0.248,0.591 0.578,1.064 0.996,1.417 0.417,0.353 0.891,0.418 1.428,0.194 C -0.196,3.875 0.108,3.596 0.268,3.234 0.43,2.866 0.435,2.448 0.287,1.967 L 0.806,1.755 1.516,3.622 1.061,3.814 C 0.987,3.684 0.897,3.593 0.783,3.533 0.635,3.78 0.441,3.993 0.208,4.18 -0.028,4.366 -0.288,4.522 -0.576,4.641 -1.075,4.852 -1.592,4.919 -2.117,4.854 -2.645,4.786 -3.122,4.592 -3.549,4.274 -3.974,3.958 -4.291,3.549 -4.499,3.044 -4.669,2.644 -4.748,2.246 -4.734,1.851 -4.723,1.462 -4.628,1.093 -4.457,0.754 -4.283,0.412 -4.05,0.11 -3.75,-0.156 c 0.304,-0.262 0.647,-0.476 1.038,-0.637 0.283,-0.122 0.549,-0.207 0.802,-0.253 0.252,-0.046 0.501,-0.058 0.75,-0.038 0.245,0.02 0.49,0.072 0.729,0.157 0.24,0.084 0.489,0.204 0.75,0.362 L 0,0 z m -45.025,-5.995 c -0.106,-0.044 -0.207,-0.041 -0.305,0.017 -0.098,0.056 -0.233,0.185 -0.399,0.383 l -2.311,2.733 0.578,0.489 c 0.175,0.147 0.334,0.226 0.483,0.237 0.151,0.013 0.292,-0.026 0.425,-0.108 0.135,-0.085 0.285,-0.213 0.454,-0.383 l 0.404,0.342 -1.121,1.193 -4.308,-3.64 1.006,-1.292 0.403,0.34 c -0.193,0.262 -0.31,0.503 -0.353,0.722 -0.046,0.217 0.04,0.418 0.254,0.602 l 0.641,0.539 2.314,-2.731 c 0.128,-0.152 0.215,-0.275 0.265,-0.365 0.049,-0.095 0.068,-0.177 0.06,-0.25 -0.014,-0.078 -0.055,-0.157 -0.123,-0.237 -0.07,-0.082 -0.183,-0.188 -0.34,-0.319 l 0.362,-0.429 2.432,2.055 -0.362,0.429 c -0.2,-0.167 -0.353,-0.276 -0.459,-0.327 m 68.57,-24.826 -0.124,0.496 c -0.311,-0.042 -0.566,-0.011 -0.759,0.095 -0.197,0.102 -0.352,0.256 -0.461,0.461 -0.108,0.204 -0.202,0.467 -0.283,0.786 -0.047,0.194 -0.076,0.362 -0.078,0.498 -0.005,0.133 0.033,0.251 0.107,0.351 0.074,0.104 0.207,0.178 0.401,0.226 l 1.38,0.342 0.128,-0.529 c 0.067,-0.267 0.054,-0.465 -0.041,-0.583 -0.094,-0.118 -0.28,-0.211 -0.562,-0.28 l 0.111,-0.447 2.004,0.494 -0.109,0.449 c -0.267,-0.057 -0.47,-0.052 -0.607,0.011 -0.135,0.066 -0.234,0.223 -0.3,0.481 l -0.129,0.527 1.73,0.428 0.294,-1.203 c 0.085,-0.342 0.069,-0.604 -0.043,-0.786 -0.117,-0.181 -0.342,-0.318 -0.679,-0.413 l 0.135,-0.541 1.472,0.516 -1.185,4.774 -0.545,-0.136 c 0.06,-0.239 0.081,-0.414 0.069,-0.526 -0.015,-0.116 -0.074,-0.202 -0.171,-0.265 -0.106,-0.062 -0.27,-0.119 -0.508,-0.179 l -2.673,-0.661 c -0.185,-0.047 -0.33,-0.074 -0.429,-0.079 -0.097,-0.005 -0.18,0.01 -0.247,0.047 -0.064,0.036 -0.122,0.101 -0.166,0.2 -0.042,0.095 -0.086,0.231 -0.131,0.406 l -0.546,-0.133 1.269,-5.127 1.676,0.3 z m -75.273,22.122 0.478,-0.457 1.49,1.564 -0.475,0.454 -1.493,-1.561 z M 26.94,-31.686 c -0.034,-0.108 -0.106,-0.187 -0.213,-0.228 -0.109,-0.047 -0.288,-0.079 -0.527,-0.1 l -2.744,-0.232 c -0.19,-0.015 -0.338,-0.021 -0.435,-0.009 -0.102,0.006 -0.178,0.038 -0.24,0.084 -0.058,0.046 -0.102,0.122 -0.131,0.223 -0.026,0.102 -0.048,0.244 -0.065,0.425 l -0.561,-0.047 0.257,-3.061 0.562,0.051 c -0.022,0.241 -0.014,0.417 0.012,0.529 0.032,0.108 0.096,0.185 0.204,0.23 0.105,0.042 0.279,0.075 0.522,0.094 l 1.217,0.105 0.207,-2.467 -1.214,-0.1 c -0.193,-0.018 -0.335,-0.02 -0.437,-0.012 -0.101,0.007 -0.178,0.037 -0.237,0.085 -0.058,0.046 -0.105,0.123 -0.132,0.22 -0.029,0.105 -0.051,0.242 -0.067,0.425 l -0.56,-0.046 0.261,-3.056 0.557,0.049 c -0.02,0.241 -0.017,0.418 0.014,0.528 0.027,0.108 0.094,0.186 0.201,0.232 0.108,0.041 0.281,0.074 0.523,0.092 l 2.745,0.236 c 0.24,0.019 0.419,0.017 0.535,-0.008 0.116,-0.026 0.2,-0.09 0.248,-0.191 0.05,-0.109 0.085,-0.279 0.109,-0.523 l 0.554,0.049 -0.257,3.055 -0.56,-0.046 c 0.022,-0.242 0.017,-0.42 -0.017,-0.531 -0.03,-0.108 -0.098,-0.186 -0.21,-0.231 -0.111,-0.045 -0.287,-0.075 -0.525,-0.098 l -1.004,-0.083 -0.21,2.465 1.001,0.083 c 0.246,0.022 0.424,0.02 0.537,-0.005 0.115,-0.024 0.196,-0.089 0.247,-0.192 0.051,-0.105 0.084,-0.277 0.107,-0.518 l 0.559,0.046 -0.259,3.06 -0.561,-0.05 c 0.022,-0.244 0.017,-0.422 -0.013,-0.532 m -0.653,-16.92 c -0.052,-0.255 -0.185,-0.421 -0.4,-0.503 -0.212,-0.08 -0.453,-0.092 -0.724,-0.035 -0.284,0.06 -0.497,0.193 -0.637,0.399 -0.139,0.203 -0.178,0.449 -0.117,0.737 l 0.1,0.468 1.92,-0.403 -0.142,-0.663 z m 0.494,2.375 c -0.061,-0.096 -0.152,-0.149 -0.269,-0.16 -0.118,-0.011 -0.294,0.009 -0.535,0.06 l -2.694,0.569 c -0.186,0.041 -0.327,0.079 -0.42,0.116 -0.092,0.038 -0.157,0.088 -0.201,0.154 -0.043,0.059 -0.066,0.143 -0.065,0.249 0.005,0.103 0.024,0.246 0.059,0.422 l -0.549,0.119 -0.633,-3 0.547,-0.115 c 0.05,0.236 0.105,0.404 0.167,0.502 0.059,0.095 0.146,0.149 0.262,0.16 0.113,0.012 0.287,-0.009 0.526,-0.057 l 1.046,-0.225 -0.19,-0.901 c -0.072,-0.352 -0.097,-0.689 -0.07,-1.01 0.031,-0.321 0.137,-0.603 0.316,-0.838 0.18,-0.235 0.445,-0.392 0.796,-0.464 0.41,-0.089 0.748,-0.058 1.018,0.093 0.27,0.148 0.475,0.371 0.622,0.666 0.147,0.297 0.261,0.644 0.348,1.046 l 0.638,3 -0.55,0.116 c -0.051,-0.237 -0.104,-0.403 -0.169,-0.502 m -0.383,6.671 c 0.322,-0.045 0.577,-0.131 0.765,-0.251 0.186,-0.122 0.269,-0.321 0.251,-0.601 l -0.061,-0.841 -3.568,0.259 c -0.204,0.015 -0.351,0.036 -0.452,0.066 -0.1,0.026 -0.175,0.073 -0.218,0.135 -0.048,0.059 -0.074,0.145 -0.083,0.251 -0.011,0.106 -0.006,0.262 0.009,0.465 l -0.56,0.038 -0.231,-3.171 0.559,-0.043 c 0.02,0.262 0.048,0.449 0.089,0.556 0.04,0.107 0.114,0.178 0.225,0.207 0.108,0.03 0.292,0.034 0.552,0.017 l 3.57,-0.26 -0.056,-0.754 c -0.014,-0.227 -0.072,-0.398 -0.17,-0.511 -0.095,-0.118 -0.218,-0.193 -0.374,-0.227 -0.153,-0.039 -0.348,-0.058 -0.588,-0.058 l -0.037,-0.526 1.635,-0.039 0.408,5.631 -1.624,0.183 -0.041,-0.526 z m -78.429,26.021 c -0.35,-0.463 -0.783,-0.652 -1.3,-0.568 -0.513,0.086 -1.03,0.32 -1.544,0.711 -0.304,0.228 -0.569,0.49 -0.794,0.784 -0.227,0.296 -0.364,0.61 -0.412,0.94 -0.05,0.335 0.043,0.655 0.275,0.96 0.362,0.477 0.793,0.674 1.294,0.579 0.501,-0.092 1.015,-0.336 1.542,-0.735 0.524,-0.396 0.9,-0.821 1.13,-1.277 0.231,-0.458 0.168,-0.922 -0.191,-1.394 m 0.007,3.899 c -0.475,0.359 -0.972,0.565 -1.496,0.614 -0.522,0.047 -1.02,-0.049 -1.498,-0.291 -0.476,-0.244 -0.892,-0.6 -1.247,-1.069 -0.262,-0.347 -0.449,-0.712 -0.573,-1.092 -0.123,-0.38 -0.167,-0.763 -0.133,-1.147 0.031,-0.382 0.144,-0.744 0.337,-1.089 0.194,-0.347 0.466,-0.652 0.824,-0.921 0.482,-0.364 0.983,-0.571 1.497,-0.619 0.513,-0.051 1.008,0.046 1.478,0.285 0.469,0.243 0.885,0.601 1.242,1.077 0.259,0.344 0.451,0.708 0.575,1.094 0.123,0.382 0.173,0.767 0.144,1.15 -0.03,0.378 -0.14,0.745 -0.329,1.088 -0.191,0.344 -0.464,0.651 -0.821,0.92 m 73.038,-15.32 c -0.033,0.156 -0.015,0.297 0.045,0.42 0.061,0.129 0.186,0.231 0.378,0.314 l 2.53,1.092 c 0.221,0.094 0.389,0.148 0.504,0.158 0.116,0.012 0.213,-0.025 0.291,-0.106 0.076,-0.082 0.164,-0.24 0.258,-0.461 l 0.517,0.221 -1.214,2.819 -0.515,-0.224 c 0.094,-0.223 0.149,-0.395 0.154,-0.507 0.01,-0.112 -0.031,-0.205 -0.118,-0.283 -0.084,-0.073 -0.241,-0.16 -0.464,-0.255 l -3.183,-1.372 -1.038,2.413 3.185,1.367 c 0.221,0.097 0.388,0.152 0.502,0.163 0.114,0.009 0.213,-0.028 0.287,-0.109 0.082,-0.083 0.166,-0.238 0.263,-0.463 l 0.518,0.223 -1.216,2.817 -0.514,-0.22 c 0.094,-0.227 0.149,-0.395 0.155,-0.506 0.005,-0.116 -0.033,-0.209 -0.119,-0.283 -0.086,-0.077 -0.245,-0.162 -0.465,-0.259 l -2.532,-1.089 c -0.224,-0.097 -0.393,-0.148 -0.51,-0.161 -0.117,-0.014 -0.219,0.02 -0.298,0.103 -0.078,0.083 -0.165,0.235 -0.263,0.458 l -0.512,-0.222 2.159,-5.016 c 0.104,-0.239 0.127,-0.465 0.065,-0.676 -0.06,-0.211 -0.169,-0.396 -0.331,-0.549 -0.158,-0.153 -0.339,-0.273 -0.542,-0.359 l -0.181,-0.08 0.215,-0.5 2.173,0.58 c -0.093,0.213 -0.154,0.398 -0.184,0.552 m -80.899,-21.399 c 0.045,-0.24 0.054,-0.416 0.036,-0.527 -0.017,-0.114 -0.079,-0.195 -0.181,-0.25 -0.101,-0.052 -0.272,-0.097 -0.511,-0.142 l -1.202,-0.211 -0.426,2.438 1.199,0.211 c 0.191,0.035 0.335,0.05 0.434,0.05 0.101,0 0.18,-0.021 0.244,-0.064 0.063,-0.04 0.113,-0.113 0.15,-0.209 0.041,-0.096 0.075,-0.238 0.106,-0.416 l 0.555,0.094 -0.532,3.023 -0.551,-0.096 c 0.041,-0.242 0.05,-0.418 0.033,-0.528 -0.019,-0.114 -0.079,-0.194 -0.181,-0.247 -0.101,-0.057 -0.274,-0.103 -0.512,-0.145 l -2.713,-0.476 c -0.238,-0.041 -0.417,-0.054 -0.535,-0.041 -0.117,0.017 -0.203,0.073 -0.265,0.172 -0.057,0.098 -0.107,0.267 -0.148,0.503 l -0.556,-0.093 0.533,-3.02 0.552,0.096 c -0.043,0.239 -0.051,0.414 -0.029,0.527 0.022,0.116 0.084,0.198 0.188,0.251 0.103,0.053 0.277,0.101 0.517,0.144 l 0.991,0.173 0.426,-2.439 -0.99,-0.173 c -0.237,-0.042 -0.418,-0.055 -0.536,-0.04 -0.115,0.015 -0.203,0.072 -0.261,0.169 -0.06,0.1 -0.109,0.269 -0.152,0.509 l -0.556,-0.096 0.532,-3.026 0.555,0.1 c -0.044,0.241 -0.054,0.415 -0.031,0.529 0.022,0.112 0.086,0.197 0.188,0.25 0.107,0.053 0.278,0.102 0.518,0.144 l 2.711,0.476 c 0.188,0.035 0.333,0.049 0.433,0.049 0.101,0 0.183,-0.023 0.245,-0.063 0.064,-0.041 0.113,-0.114 0.149,-0.213 0.04,-0.097 0.075,-0.239 0.105,-0.416 l 0.554,0.097 -0.531,3.022 -0.555,-0.096 z m -4.079,6.776 c -0.153,0.067 -0.349,0.11 -0.582,0.125 0.198,0.02 0.38,0.062 0.547,0.124 l 1.603,0.587 0.027,-1.483 -1.595,0.647 z m 3.216,-2.111 c 0.135,-0.125 0.204,-0.335 0.21,-0.619 l 0.56,0.007 -0.035,2.179 -0.56,-0.009 10e-4,-0.148 c 0.003,-0.155 -0.01,-0.279 -0.041,-0.371 -0.029,-0.095 -0.094,-0.145 -0.196,-0.145 -0.077,-0.001 -0.171,0.02 -0.287,0.059 -0.115,0.04 -0.253,0.096 -0.419,0.17 -0.167,0.071 -0.272,0.116 -0.323,0.132 l -0.029,1.897 c 0.052,0.02 0.157,0.064 0.316,0.133 0.159,0.069 0.296,0.121 0.407,0.159 0.114,0.036 0.21,0.055 0.293,0.057 0.176,0.004 0.267,-0.157 0.272,-0.478 0,-0.002 -0.003,-0.013 -0.009,-0.029 -0.006,-0.012 -0.008,-0.026 -0.008,-0.035 l 0.002,-0.115 0.56,0.008 -0.051,3.167 -0.561,-0.008 c 0,-0.226 -0.037,-0.406 -0.104,-0.542 -0.07,-0.136 -0.164,-0.242 -0.29,-0.321 -0.125,-0.079 -0.306,-0.173 -0.545,-0.272 l -3.963,-1.632 0.018,-1.155 4.118,-1.715 c 0.305,-0.122 0.526,-0.247 0.664,-0.374 m 20.913,40.574 c 0.133,-0.284 0.184,-0.534 0.147,-0.755 -0.035,-0.218 -0.132,-0.411 -0.292,-0.58 -0.164,-0.17 -0.381,-0.339 -0.662,-0.513 -0.17,-0.11 -0.319,-0.187 -0.444,-0.231 -0.128,-0.045 -0.252,-0.05 -0.372,-0.011 -0.12,0.039 -0.231,0.143 -0.339,0.309 l -0.756,1.204 0.461,0.289 c 0.234,0.146 0.424,0.196 0.567,0.143 0.139,-0.05 0.29,-0.201 0.442,-0.443 l 0.391,0.247 -1.101,1.745 -0.39,-0.247 c 0.14,-0.235 0.197,-0.429 0.179,-0.576 -0.018,-0.15 -0.139,-0.299 -0.36,-0.434 l -0.46,-0.292 -0.95,1.508 1.048,0.659 c 0.298,0.188 0.552,0.252 0.762,0.204 0.208,-0.052 0.409,-0.226 0.603,-0.515 l 0.473,0.299 -0.95,1.235 -4.161,-2.621 0.299,-0.477 c 0.207,0.133 0.366,0.209 0.479,0.231 0.113,0.022 0.213,-0.004 0.303,-0.08 0.091,-0.08 0.198,-0.22 0.329,-0.426 l 1.467,-2.329 c 0.101,-0.164 0.173,-0.289 0.211,-0.384 0.035,-0.09 0.046,-0.173 0.03,-0.249 -0.013,-0.074 -0.06,-0.147 -0.138,-0.221 -0.077,-0.07 -0.19,-0.155 -0.346,-0.253 l 0.299,-0.476 4.468,2.811 -0.807,1.501 -0.43,-0.272 z m 6.795,1.995 c -0.123,0.003 -0.295,0.06 -0.508,0.175 l -2.339,1.321 0.64,1.789 c 0.072,0.213 0.159,0.372 0.261,0.475 0.1,0.101 0.262,0.204 0.48,0.298 l 0.076,0.033 -0.223,0.515 -2.209,-0.962 0.225,-0.517 0.241,0.105 c 0.16,0.073 0.268,0.05 0.317,-0.06 0.027,-0.061 0.013,-0.156 -0.039,-0.286 l -0.32,-0.913 c -0.025,-0.057 -0.027,-0.133 -0.012,-0.22 -0.111,0.107 -0.177,0.168 -0.203,0.182 l -0.719,0.404 c -0.125,0.064 -0.201,0.135 -0.234,0.204 -0.04,0.091 0.022,0.173 0.181,0.239 l 0.289,0.129 -0.224,0.515 -2.934,-1.28 0.226,-0.516 c 0.207,0.09 0.383,0.139 0.526,0.144 0.146,0.009 0.311,-0.035 0.495,-0.13 l 2.041,-1.178 -0.694,-1.997 c -0.087,-0.233 -0.191,-0.423 -0.311,-0.566 -0.118,-0.141 -0.286,-0.265 -0.5,-0.379 l 0.226,-0.515 2.191,0.957 -0.224,0.516 -0.273,-0.119 c -0.064,-0.028 -0.13,-0.035 -0.191,-0.026 -0.062,0.01 -0.103,0.046 -0.127,0.102 -0.036,0.08 -0.033,0.179 0.013,0.291 l 0.443,1.22 c 0.01,0.036 0.018,0.08 0.022,0.136 0.004,0.062 0.007,0.097 0.01,0.111 0.065,-0.084 0.12,-0.137 0.161,-0.161 l 1.061,-0.617 c 0.09,-0.035 0.151,-0.09 0.186,-0.171 0.047,-0.111 -0.014,-0.203 -0.186,-0.279 l -0.272,-0.116 0.224,-0.517 2.947,1.287 -0.224,0.515 C -32.743,0.917 -32.915,0.872 -33.04,0.875 m 7.05,1.86 c -0.114,0.015 -0.2,0.068 -0.263,0.167 -0.059,0.096 -0.116,0.264 -0.175,0.498 l -0.66,2.675 c -0.061,0.233 -0.087,0.411 -0.081,0.529 0.009,0.118 0.059,0.208 0.154,0.274 0.091,0.067 0.258,0.129 0.494,0.188 l -0.135,0.546 -2.976,-0.74 0.135,-0.545 c 0.233,0.06 0.41,0.082 0.525,0.068 0.114,-0.016 0.201,-0.072 0.262,-0.173 0.06,-0.1 0.121,-0.269 0.179,-0.505 l 0.24,-0.976 -2.4,-0.595 -0.244,0.978 c -0.057,0.232 -0.085,0.413 -0.077,0.529 0.01,0.117 0.061,0.209 0.156,0.277 0.092,0.065 0.256,0.125 0.493,0.184 l -0.135,0.547 -2.977,-0.74 0.133,-0.546 c 0.237,0.062 0.411,0.082 0.529,0.07 0.113,-0.015 0.2,-0.072 0.26,-0.174 0.06,-0.102 0.121,-0.269 0.18,-0.502 l 0.662,-2.675 c 0.046,-0.186 0.07,-0.329 0.077,-0.428 0.007,-0.1 -0.008,-0.182 -0.049,-0.249 -0.038,-0.065 -0.101,-0.122 -0.197,-0.166 -0.097,-0.044 -0.233,-0.089 -0.41,-0.13 l 0.135,-0.546 2.98,0.735 -0.138,0.546 c -0.235,-0.058 -0.409,-0.081 -0.522,-0.068 -0.113,0.009 -0.199,0.063 -0.261,0.161 -0.057,0.099 -0.118,0.268 -0.177,0.499 l -0.291,1.187 2.401,0.594 0.294,-1.185 c 0.047,-0.186 0.073,-0.329 0.079,-0.427 0.008,-0.101 -0.012,-0.181 -0.047,-0.249 -0.037,-0.067 -0.104,-0.12 -0.198,-0.164 -0.097,-0.045 -0.233,-0.092 -0.409,-0.134 l 0.135,-0.544 2.978,0.734 -0.136,0.546 C -25.703,2.75 -25.877,2.724 -25.99,2.735 m -31.907,-26.17 c -0.07,-0.09 -0.162,-0.135 -0.275,-0.135 -0.116,0 -0.288,0.037 -0.518,0.111 l -2.627,0.835 c -0.232,0.077 -0.396,0.145 -0.493,0.213 -0.098,0.067 -0.148,0.159 -0.156,0.276 -0.006,0.114 0.028,0.285 0.102,0.518 l -0.533,0.171 -0.872,-2.734 0.549,-0.179 c 0.076,0.236 0.163,0.376 0.252,0.418 0.093,0.045 0.225,0.04 0.396,-0.016 l 0.19,-0.059 c 0.009,-0.004 0.027,-0.005 0.056,-0.009 0.029,-0.006 0.048,-0.007 0.057,-0.011 l 1.083,-0.344 c -0.046,-0.298 -0.102,-0.547 -0.164,-0.744 -0.125,-0.391 -0.294,-0.653 -0.505,-0.787 -0.211,-0.132 -0.486,-0.146 -0.816,-0.04 -0.012,0.003 -0.041,0.015 -0.085,0.035 -0.043,0.02 -0.074,0.032 -0.098,0.041 -0.012,0.001 -0.106,0.039 -0.29,0.105 -0.18,0.064 -0.292,0.118 -0.333,0.155 -0.04,0.043 -0.057,0.103 -0.052,0.182 0.005,0.079 0.036,0.209 0.089,0.382 l -0.549,0.176 -0.874,-2.75 0.53,-0.167 c 0.098,0.304 0.203,0.491 0.315,0.568 0.111,0.072 0.29,0.07 0.541,-0.011 l 0.173,-0.053 c 0.023,-0.008 0.053,-0.018 0.088,-0.038 0.038,-0.02 0.067,-0.03 0.079,-0.034 0.399,-0.128 0.748,-0.132 1.037,-0.016 0.29,0.119 0.519,0.301 0.691,0.544 0.171,0.246 0.299,0.507 0.388,0.787 0.014,0.04 0.03,0.097 0.045,0.171 0.02,0.079 0.032,0.126 0.041,0.148 0.056,0.255 0.092,0.424 0.112,0.507 0.016,0.082 0.036,0.176 0.052,0.286 0.015,0.104 0.032,0.241 0.045,0.404 l 1.081,-0.343 c 0.187,-0.058 0.319,-0.111 0.41,-0.158 0.088,-0.048 0.148,-0.103 0.186,-0.171 0.035,-0.065 0.049,-0.148 0.035,-0.256 -0.01,-0.101 -0.044,-0.242 -0.1,-0.417 l 0.535,-0.169 0.931,2.923 -0.537,0.172 c -0.072,-0.237 -0.143,-0.396 -0.212,-0.487 m 39.26,26.787 c -0.11,0.029 -0.186,0.099 -0.227,0.208 -0.042,0.106 -0.072,0.279 -0.086,0.523 l -0.184,2.748 c -0.018,0.243 -0.012,0.42 0.018,0.534 0.026,0.114 0.092,0.197 0.196,0.247 0.105,0.045 0.28,0.078 0.52,0.094 l -0.037,0.559 -3.06,-0.202 0.039,-0.562 0.016,0.004 c 0.109,0.007 0.258,-0.031 0.454,-0.11 0.19,-0.08 0.292,-0.2 0.302,-0.354 l 0.004,-0.052 -2.257,-2.611 -0.145,2.19 c -0.019,0.242 -0.011,0.421 0.017,0.535 0.028,0.113 0.094,0.197 0.198,0.245 0.103,0.047 0.277,0.08 0.518,0.098 l -0.035,0.558 -3.065,-0.205 0.041,-0.559 c 0.242,0.014 0.418,0.006 0.528,-0.027 0.111,-0.033 0.187,-0.108 0.228,-0.215 0.041,-0.11 0.072,-0.288 0.09,-0.529 l 0.182,-2.747 c 0.013,-0.192 0.013,-0.337 0,-0.436 -0.01,-0.098 -0.039,-0.177 -0.089,-0.237 -0.046,-0.059 -0.123,-0.1 -0.224,-0.126 -0.104,-0.028 -0.246,-0.05 -0.427,-0.061 l 0.039,-0.561 3.061,0.206 -0.037,0.561 c -0.014,0 -0.036,-0.006 -0.058,-0.016 -0.027,-0.008 -0.046,-0.01 -0.055,-0.01 -0.187,-0.012 -0.343,0.026 -0.474,0.116 -0.126,0.089 -0.192,0.196 -0.203,0.317 0,0.013 0.002,0.034 0.006,0.066 0.005,0.029 0.006,0.052 0.006,0.067 l 2.26,2.547 0.146,-2.174 c 0.011,-0.188 0.011,-0.334 0,-0.432 -0.009,-0.099 -0.039,-0.179 -0.09,-0.236 -0.045,-0.061 -0.124,-0.102 -0.222,-0.127 -0.103,-0.028 -0.242,-0.048 -0.426,-0.06 l 0.037,-0.56 3.06,0.201 -0.035,0.56 c -0.247,-0.014 -0.422,-0.006 -0.53,0.025 m -35.995,-20.126 c -0.079,-0.079 -0.178,-0.106 -0.291,-0.087 -0.114,0.019 -0.276,0.084 -0.495,0.195 l -2.444,1.268 c -0.216,0.108 -0.366,0.208 -0.45,0.291 -0.084,0.081 -0.121,0.178 -0.107,0.295 0.014,0.114 0.075,0.281 0.19,0.497 l -0.5,0.255 -1.413,-2.724 0.499,-0.258 c 0.113,0.216 0.21,0.361 0.298,0.44 0.087,0.075 0.187,0.106 0.302,0.082 0.116,-0.02 0.282,-0.087 0.498,-0.197 l 0.893,-0.463 -1.136,-2.199 -0.894,0.462 c -0.214,0.112 -0.364,0.208 -0.449,0.292 -0.084,0.083 -0.12,0.18 -0.105,0.295 0.01,0.114 0.072,0.28 0.185,0.496 l -0.499,0.257 -1.411,-2.725 0.501,-0.259 c 0.111,0.218 0.21,0.364 0.295,0.44 0.087,0.079 0.187,0.106 0.304,0.084 0.116,-0.018 0.282,-0.085 0.498,-0.198 l 2.444,-1.265 c 0.171,-0.088 0.294,-0.162 0.374,-0.223 0.082,-0.06 0.132,-0.127 0.154,-0.198 0.027,-0.071 0.027,-0.159 -0.005,-0.26 -0.031,-0.103 -0.086,-0.235 -0.169,-0.394 l 0.498,-0.257 1.411,2.726 -0.499,0.259 c -0.113,-0.22 -0.209,-0.368 -0.294,-0.444 -0.08,-0.075 -0.182,-0.107 -0.294,-0.087 -0.112,0.018 -0.278,0.085 -0.492,0.195 l -1.086,0.563 1.137,2.2 1.083,-0.563 c 0.172,-0.09 0.297,-0.163 0.377,-0.222 0.078,-0.06 0.13,-0.129 0.155,-0.2 0.025,-0.074 0.022,-0.16 -0.007,-0.258 -0.029,-0.103 -0.085,-0.231 -0.17,-0.393 l 0.5,-0.26 1.41,2.724 -0.5,0.257 c -0.111,-0.216 -0.211,-0.364 -0.296,-0.439 m 70.958,2.477 2.158,1.71 c 0.189,0.149 0.338,0.247 0.451,0.29 0.109,0.04 0.213,0.033 0.314,-0.023 0.1,-0.06 0.223,-0.187 0.372,-0.375 l 0.442,0.347 -1.904,2.404 -0.441,-0.348 0.01,-0.013 c 0.066,-0.087 0.124,-0.232 0.17,-0.434 0.041,-0.204 0.002,-0.355 -0.121,-0.449 l -0.038,-0.033 -3.432,0.374 1.72,1.363 c 0.188,0.15 0.34,0.247 0.447,0.29 0.113,0.041 0.216,0.034 0.315,-0.025 0.098,-0.058 0.224,-0.182 0.373,-0.371 l 0.441,0.345 -1.903,2.406 -0.44,-0.347 c 0.151,-0.194 0.244,-0.343 0.279,-0.451 0.032,-0.11 0.021,-0.215 -0.049,-0.311 -0.069,-0.098 -0.196,-0.223 -0.386,-0.373 l -2.16,-1.707 c -0.151,-0.122 -0.269,-0.205 -0.356,-0.251 -0.087,-0.048 -0.17,-0.069 -0.244,-0.061 -0.074,0.007 -0.155,0.045 -0.235,0.112 -0.079,0.072 -0.177,0.177 -0.289,0.319 l -0.438,-0.348 1.903,-2.409 0.442,0.352 c -0.01,0.011 -0.025,0.024 -0.048,0.039 -0.018,0.018 -0.033,0.029 -0.038,0.039 -0.118,0.148 -0.173,0.296 -0.173,0.452 0.003,0.157 0.053,0.273 0.147,0.348 0.01,0.01 0.028,0.02 0.057,0.035 0.026,0.012 0.045,0.025 0.057,0.035 l 3.381,-0.418 -1.708,-1.35 c -0.148,-0.117 -0.268,-0.201 -0.356,-0.249 -0.087,-0.05 -0.169,-0.069 -0.245,-0.062 -0.075,0.007 -0.154,0.046 -0.231,0.113 -0.081,0.068 -0.178,0.173 -0.291,0.318 l -0.442,-0.35 1.907,-2.402 0.44,0.348 c -0.152,0.192 -0.247,0.341 -0.283,0.446 -0.036,0.11 -0.021,0.211 0.041,0.306 0.066,0.094 0.193,0.216 0.384,0.369 m 2.227,5.107 c 0.18,-0.235 0.407,-0.45 0.675,-0.652 0.27,-0.201 0.547,-0.329 0.839,-0.387 0.288,-0.058 0.55,10e-4 0.779,0.184 0.112,0.087 0.192,0.196 0.244,0.33 0.048,0.131 0.063,0.268 0.044,0.409 -0.018,0.14 -0.071,0.265 -0.157,0.374 -0.123,0.155 -0.286,0.247 -0.481,0.276 -0.196,0.027 -0.376,-0.015 -0.538,-0.132 -0.053,-0.046 -0.116,-0.121 -0.183,-0.231 -0.067,-0.109 -0.126,-0.186 -0.173,-0.223 -0.076,-0.06 -0.183,-0.042 -0.319,0.048 -0.137,0.093 -0.246,0.188 -0.325,0.288 -0.076,0.095 -0.141,0.219 -0.196,0.372 -0.054,0.153 -0.043,0.257 0.029,0.312 0.042,0.037 0.126,0.074 0.246,0.112 0.122,0.041 0.216,0.086 0.277,0.137 0.153,0.127 0.236,0.292 0.253,0.492 0.02,0.197 -0.038,0.375 -0.16,0.529 -0.086,0.11 -0.194,0.19 -0.326,0.243 -0.133,0.047 -0.271,0.064 -0.412,0.046 -0.139,-0.019 -0.26,-0.074 -0.372,-0.159 -0.232,-0.183 -0.354,-0.417 -0.369,-0.706 -0.02,-0.285 0.036,-0.575 0.161,-0.872 0.123,-0.296 0.277,-0.559 0.464,-0.79 M 6.141,-4.659 C 5.984,-4.665 5.871,-4.647 5.808,-4.608 5.626,-4.495 5.514,-4.214 5.476,-3.762 L 5.487,-2.68 C 5.492,-2.544 5.473,-2.371 5.42,-2.156 5.369,-1.95 5.284,-1.736 5.17,-1.523 5.057,-1.306 4.92,-1.128 4.754,-0.985 4.846,-1 4.957,-0.994 5.082,-0.962 c 0.12,0.032 0.263,0.075 0.425,0.133 0.156,0.06 0.335,0.128 0.532,0.2 0.2,0.073 0.371,0.128 0.513,0.161 0.043,0.01 0.107,-0.013 0.195,-0.066 0.101,-0.059 0.162,-0.139 0.183,-0.23 0.055,-0.228 0.145,-0.382 0.279,-0.462 0.041,-0.029 0.118,-0.049 0.215,-0.057 0.121,-0.012 0.234,0.014 0.338,0.075 0.101,0.06 0.184,0.144 0.247,0.244 l 0.052,0.083 C 8.127,-0.742 8.125,-0.58 8.055,-0.392 7.982,-0.204 7.849,-0.05 7.658,0.067 L 7.633,0.084 C 7.436,0.201 7.224,0.254 6.99,0.254 6.756,0.25 6.561,0.223 6.401,0.168 6.329,0.144 6.165,0.073 5.905,-0.05 5.646,-0.169 5.422,-0.264 5.238,-0.342 5.053,-0.414 4.87,-0.474 4.682,-0.511 4.493,-0.552 4.342,-0.545 4.221,-0.496 L 3.788,-0.226 4.24,0.5 C 4.363,0.698 4.467,0.841 4.552,0.917 4.631,0.996 4.728,1.027 4.843,1.015 4.952,1 5.103,0.935 5.292,0.818 L 5.587,1.295 3.079,2.854 2.781,2.375 C 2.966,2.263 3.087,2.159 3.152,2.059 3.215,1.962 3.23,1.854 3.198,1.739 3.172,1.624 3.096,1.473 2.979,1.285 L 1.524,-1.055 C 1.413,-1.237 1.314,-1.366 1.227,-1.446 1.139,-1.523 1.037,-1.554 0.922,-1.541 0.804,-1.528 0.653,-1.466 0.468,-1.352 L 0.171,-1.829 2.68,-3.385 2.979,-2.906 c -0.19,0.116 -0.315,0.222 -0.378,0.315 -0.061,0.092 -0.076,0.191 -0.041,0.3 0.029,0.107 0.105,0.258 0.229,0.452 l 0.713,1.15 0.266,-0.169 C 3.999,-1.006 4.129,-1.172 4.161,-1.352 4.192,-1.53 4.189,-1.784 4.156,-2.105 4.143,-2.208 4.108,-2.38 4.056,-2.627 4.004,-2.87 3.968,-3.086 3.948,-3.275 3.933,-3.467 3.94,-3.661 3.979,-3.859 3.989,-3.965 4.05,-4.098 4.161,-4.267 4.268,-4.435 4.4,-4.581 4.558,-4.706 L 4.712,-4.802 C 4.908,-4.926 5.13,-5.014 5.369,-5.07 5.604,-5.126 5.826,-5.135 6.03,-5.093 l 0.111,0.434 z m -71.074,-30.156 c 0.032,0.204 0.102,0.369 0.21,0.496 0.11,0.124 0.28,0.233 0.516,0.325 l 2.977,1.39 c 0.034,0.014 0.086,0.032 0.157,0.048 0.072,0.02 0.139,0.022 0.202,0.016 0.036,-0.007 0.086,-0.038 0.152,-0.091 0.068,-0.057 0.111,-0.105 0.129,-0.151 l 0.011,-0.036 c -0.005,-0.034 -0.031,-0.075 -0.083,-0.124 -0.047,-0.05 -0.088,-0.087 -0.121,-0.114 -0.227,-0.181 -0.354,-0.361 -0.38,-0.544 -0.012,-0.076 -0.005,-0.148 0.017,-0.219 0.032,-0.113 0.104,-0.218 0.217,-0.315 0.116,-0.094 0.234,-0.151 0.362,-0.172 0.012,-0.002 0.039,0 0.07,0.007 0.033,0.005 0.062,0.01 0.079,0.005 0.085,0 0.179,0.027 0.287,0.087 0.107,0.054 0.206,0.149 0.297,0.275 0.089,0.127 0.148,0.285 0.176,0.473 l 0.008,0.051 c 0.024,0.2 -0.041,0.43 -0.194,0.687 -0.151,0.252 -0.359,0.488 -0.632,0.706 l -3.159,2.49 c -0.132,0.105 -0.228,0.248 -0.292,0.423 -0.062,0.179 -0.082,0.375 -0.057,0.597 l -0.558,0.084 -0.354,-2.368 0.555,-0.082 0.06,0.394 c 0.036,0.227 0.128,0.33 0.282,0.308 0.084,-0.014 0.187,-0.061 0.311,-0.148 l 1.642,-1.266 -2.102,-0.901 c -0.018,-0.003 -0.044,-0.009 -0.085,-0.026 -0.038,-0.011 -0.08,-0.015 -0.121,-0.011 -0.094,0.014 -0.151,0.057 -0.171,0.125 -0.021,0.066 -0.021,0.163 0,0.288 l 0.029,0.194 -0.555,0.084 -0.455,-3.02 0.557,-0.083 0.016,0.118 z m 76.152,25.549 c -0.054,0.1 -0.057,0.201 -0.011,0.307 0.044,0.108 0.152,0.248 0.313,0.43 l 1.828,2.059 c 0.16,0.182 0.294,0.303 0.39,0.364 0.106,0.063 0.206,0.07 0.315,0.031 0.106,-0.04 0.253,-0.143 0.434,-0.303 l 0.371,0.421 -2.291,2.035 -0.374,-0.42 0.013,-0.011 c 0.084,-0.074 0.162,-0.206 0.241,-0.398 0.077,-0.193 0.064,-0.35 -0.039,-0.466 l -0.033,-0.036 -3.447,-0.23 1.459,1.639 c 0.161,0.183 0.292,0.306 0.393,0.366 0.101,0.062 0.205,0.072 0.313,0.032 0.104,-0.041 0.252,-0.143 0.432,-0.303 L 11.9,-3.328 9.606,-1.29 9.23,-1.712 C 9.411,-1.875 9.533,-2.006 9.585,-2.11 9.638,-2.211 9.641,-2.316 9.592,-2.422 9.543,-2.529 9.438,-2.675 9.278,-2.858 L 7.45,-4.917 C 7.322,-5.06 7.22,-5.162 7.142,-5.223 7.063,-5.286 6.985,-5.32 6.911,-5.326 6.833,-5.332 6.751,-5.309 6.659,-5.253 6.567,-5.199 6.457,-5.112 6.319,-4.991 L 5.946,-5.413 8.241,-7.45 8.618,-7.03 c -0.014,0.011 -0.031,0.02 -0.054,0.032 -0.023,0.014 -0.038,0.023 -0.045,0.033 -0.14,0.123 -0.224,0.261 -0.253,0.415 -0.025,0.153 0.005,0.276 0.087,0.368 0.008,0.01 0.026,0.021 0.047,0.04 0.029,0.021 0.044,0.035 0.054,0.045 l 3.4,0.181 -1.443,-1.626 C 10.283,-7.687 10.181,-7.789 10.1,-7.852 10.026,-7.912 9.946,-7.948 9.872,-7.951 9.795,-7.959 9.713,-7.936 9.624,-7.884 9.533,-7.83 9.42,-7.743 9.282,-7.623 l -0.375,-0.42 2.297,-2.037 0.371,0.422 c -0.183,0.161 -0.3,0.294 -0.356,0.392 m -23.13,15.562 c 0.025,0.244 0.059,0.417 0.105,0.527 0.048,0.107 0.125,0.178 0.239,0.207 0.106,0.031 0.287,0.032 0.526,0.009 l 0.058,0.557 -2.856,0.285 -0.058,-0.575 c 0.245,-0.024 0.397,-0.077 0.459,-0.157 0.062,-0.083 0.084,-0.215 0.067,-0.39 l -0.02,-0.199 c -0.003,-0.009 -0.003,-0.028 0,-0.059 0.002,-0.027 0.006,-0.046 0.002,-0.058 L -13.5,5.311 c -0.301,-0.015 -0.555,-0.011 -0.762,0.009 -0.407,0.041 -0.699,0.153 -0.875,0.333 -0.171,0.177 -0.242,0.443 -0.208,0.787 0,0.015 0.01,0.043 0.018,0.088 0.01,0.049 0.015,0.082 0.019,0.108 0.002,0.01 0.017,0.112 0.041,0.305 0.027,0.189 0.057,0.31 0.085,0.357 0.031,0.05 0.088,0.077 0.168,0.09 0.079,0.01 0.207,0.007 0.391,-0.009 l 0.058,0.574 -2.868,0.287 -0.058,-0.557 c 0.318,-0.031 0.523,-0.095 0.624,-0.188 0.093,-0.093 0.126,-0.271 0.102,-0.531 l -0.017,-0.182 c -0.002,-0.023 -0.012,-0.056 -0.019,-0.096 -0.01,-0.042 -0.017,-0.065 -0.019,-0.082 -0.041,-0.418 0.026,-0.757 0.201,-1.016 0.175,-0.259 0.399,-0.446 0.677,-0.565 0.273,-0.113 0.556,-0.19 0.848,-0.216 0.041,-0.007 0.102,-0.007 0.179,-0.011 0.077,-0.002 0.128,-0.002 0.149,-0.006 0.263,-0.001 0.437,-0.004 0.522,-0.004 0.084,-0.002 0.181,0 0.288,0.008 0.108,0.006 0.244,0.019 0.408,0.039 l -0.113,-1.13 c -0.021,-0.191 -0.043,-0.334 -0.069,-0.431 -0.027,-0.095 -0.068,-0.168 -0.128,-0.22 -0.057,-0.049 -0.138,-0.075 -0.245,-0.088 -0.1,-0.009 -0.246,-0.004 -0.427,0.013 l -0.056,-0.556 3.054,-0.309 0.055,0.56 c -0.242,0.023 -0.419,0.061 -0.518,0.111 -0.106,0.049 -0.165,0.128 -0.191,0.239 -0.02,0.112 -0.02,0.291 10e-4,0.533 l 0.274,2.741 z m 1.899,0.535 C -9.776,6.769 -9.611,6.705 -9.514,6.641 -9.421,6.573 -9.372,6.483 -9.362,6.365 -9.358,6.247 -9.387,6.07 -9.447,5.834 L -10.126,3.166 C -10.173,2.98 -10.222,2.84 -10.258,2.75 c -0.043,-0.089 -0.095,-0.156 -0.159,-0.196 -0.064,-0.04 -0.151,-0.055 -0.254,-0.049 -0.105,0.005 -0.25,0.029 -0.424,0.075 l -0.139,-0.545 5.117,-1.305 0.53,1.619 -0.496,0.128 C -6.196,2.18 -6.343,1.971 -6.524,1.847 -6.711,1.722 -6.917,1.658 -7.149,1.66 -7.385,1.662 -7.657,1.704 -7.974,1.781 -8.171,1.834 -8.332,1.889 -8.452,1.949 -8.571,2.009 -8.661,2.099 -8.714,2.211 -8.767,2.325 -8.77,2.479 -8.72,2.669 l 0.347,1.378 0.529,-0.134 C -7.574,3.843 -7.41,3.74 -7.352,3.601 -7.288,3.46 -7.296,3.252 -7.366,2.973 l 0.449,-0.115 0.506,2.001 -0.443,0.113 C -6.932,4.71 -7.031,4.538 -7.153,4.444 -7.275,4.355 -7.464,4.345 -7.719,4.407 l -0.525,0.134 0.439,1.726 1.201,-0.308 C -6.264,5.873 -6.042,5.736 -5.933,5.55 -5.824,5.361 -5.812,5.101 -5.889,4.759 L -5.35,4.621 -5.108,6.16 -9.874,7.374 -10.012,6.831 z"
               id="path122"
               style="fill:#005e98;fill-opacity:1;fill-rule:nonzero;stroke:none" />
          </g>
        </g>
      </g>
    </g>
  </g>
</svg>
