<svg xmlns="http://www.w3.org/2000/svg" width="9.348" height="11.024" viewBox="0 0 9.348 11.024">
    <path
        d="m9.059,3.539c-0.16,0 -0.289,0.13 -0.289,0.289v1.132L8.446,4.961v-0.258c0,-0.642 -0.522,-1.164 -1.163,-1.164 -0.348,0 -0.661,0.155 -0.874,0.398 -0.214,-0.243 -0.526,-0.398 -0.874,-0.398 -0.348,0 -0.661,0.155 -0.874,0.398 -0.214,-0.243 -0.526,-0.398 -0.874,-0.398 -0.348,0 -0.661,0.155 -0.874,0.398 -0.213,-0.243 -0.526,-0.398 -0.874,-0.398 -0.641,0 -1.163,0.522 -1.163,1.164v0.258h-0.585c-0.16,0 -0.289,0.13 -0.289,0.289 0,0.16 0.13,0.289 0.289,0.289h0.585v4.321c0,0.642 0.522,1.164 1.163,1.164 0.348,0 0.661,-0.155 0.874,-0.398 0.213,0.243 0.526,0.398 0.874,0.398 0.348,0 0.661,-0.155 0.874,-0.398 0.213,0.243 0.526,0.398 0.874,0.398 0.348,0 0.661,-0.155 0.874,-0.398 0.213,0.243 0.526,0.398 0.874,0.398 0.642,0 1.164,-0.522 1.164,-1.164v-4.32h0.613c0.16,0 0.289,-0.13 0.289,-0.289v-1.422c0,-0.16 -0.129,-0.29 -0.289,-0.29zM7.867,5.54v4.321c0,0.322 -0.262,0.585 -0.584,0.585 -0.322,0 -0.585,-0.262 -0.585,-0.585v-4.321,-0.579 -0.258c0,-0.322 0.262,-0.585 0.585,-0.585 0.322,0 0.584,0.262 0.584,0.585v0.258zM6.119,9.86c0,0.322 -0.262,0.585 -0.585,0.585 -0.322,0 -0.585,-0.262 -0.585,-0.585v-4.32,-0.579 -0.258c0,-0.322 0.262,-0.585 0.585,-0.585 0.322,0 0.585,0.262 0.585,0.585v0.258,0.579zM4.37,9.86c0,0.322 -0.262,0.585 -0.585,0.585 -0.322,0 -0.585,-0.262 -0.585,-0.585v-4.32,-0.579 -0.258c0,-0.322 0.262,-0.585 0.585,-0.585 0.322,0 0.585,0.262 0.585,0.585v0.258,0.579zM2.622,9.86c0,0.322 -0.262,0.585 -0.585,0.585 -0.322,0 -0.585,-0.262 -0.585,-0.585v-4.32,-0.579 -0.258c0,-0.322 0.262,-0.585 0.585,-0.585 0.322,0 0.585,0.262 0.585,0.585v0.258,0.579zM1.137,9.136h-0.847c-0.16,0 -0.289,0.13 -0.289,0.289 0,0.16 0.13,0.289 0.289,0.289h0.847m7.055,0h0.847c0.16,0 0.289,-0.13 0.289,-0.289 0,-0.16 -0.13,-0.289 -0.289,-0.289L8.192,9.136"
        stroke-width="0.110349"
        fill="currentColor"
        stroke="#00000000"/>
    <path
        d="m2.735,0.097c-0.261,0.311 -0.368,0.641 -0.239,1.037 0.128,0.39 0.52,0.748 0.207,1.151 -0.226,0.291 0.18,0.704 0.409,0.409 0.258,-0.331 0.369,-0.669 0.239,-1.08 -0.117,-0.371 -0.519,-0.735 -0.207,-1.107 0.238,-0.284 -0.169,-0.696 -0.409,-0.409z"
        stroke-width="0.110349"
        fill="currentColor"
        stroke="#00000000"/>
    <path
        d="m4.849,2.694c0.258,-0.331 0.369,-0.669 0.239,-1.08 -0.117,-0.371 -0.519,-0.735 -0.207,-1.107 0.238,-0.284 -0.169,-0.696 -0.409,-0.409 -0.261,0.311 -0.368,0.641 -0.239,1.037 0.128,0.39 0.52,0.748 0.207,1.151 -0.226,0.291 0.18,0.704 0.409,0.409z"
        stroke-width="0.110349"
        fill="currentColor"
        stroke="#00000000"/>
    <path
        d="m6.208,0.097c-0.261,0.311 -0.368,0.641 -0.239,1.037 0.128,0.39 0.52,0.748 0.207,1.151 -0.226,0.291 0.18,0.704 0.409,0.409 0.258,-0.331 0.369,-0.669 0.239,-1.08 -0.117,-0.371 -0.519,-0.735 -0.207,-1.107 0.238,-0.284 -0.169,-0.696 -0.409,-0.409z"
        stroke-width="0.110349"
        fill="currentColor"
        stroke="#00000000"/>
</svg>